<mxfile host="app.diagrams.net" agent="Mozilla/5.0 (Macintosh; Intel Mac OS X 10_15_7) AppleWebKit/605.1.15 (KHTML, like Gecko) Version/17.2.1 Safari/605.1.15" version="24.8.3">
  <diagram name="Page-1" id="bft9YeMtXqTyEebsaP95">
    <mxGraphModel dx="2440" dy="2176" grid="1" gridSize="10" guides="1" tooltips="1" connect="1" arrows="1" fold="1" page="1" pageScale="1" pageWidth="1100" pageHeight="850" math="0" shadow="0">
      <root>
        <mxCell id="0" />
        <mxCell id="1" parent="0" />
        <mxCell id="isQWPGoxkEkcY4KGL05K-5" value="d_e.rq0.1_&lt;span style=&quot;font-size: 11px;&quot;&gt;extract_artifact_names_from_api.py&lt;/span&gt;" style="edgeStyle=orthogonalEdgeStyle;rounded=0;orthogonalLoop=1;jettySize=auto;html=1;fontStyle=1;fillColor=none;" parent="1" source="isQWPGoxkEkcY4KGL05K-1" target="isQWPGoxkEkcY4KGL05K-3" edge="1">
          <mxGeometry relative="1" as="geometry">
            <mxPoint x="595" y="-74.94117647058829" as="targetPoint" />
          </mxGeometry>
        </mxCell>
        <mxCell id="isQWPGoxkEkcY4KGL05K-1" value="" style="shape=cylinder3;whiteSpace=wrap;html=1;boundedLbl=1;backgroundOutline=1;size=15;fillColor=#eeeeee;strokeColor=#36393d;" parent="1" vertex="1">
          <mxGeometry x="200" y="-110" width="60" height="80" as="geometry" />
        </mxCell>
        <mxCell id="isQWPGoxkEkcY4KGL05K-2" value="&lt;b&gt;goblin_maven_30_08_24.dump&lt;/b&gt;" style="text;html=1;align=center;verticalAlign=middle;whiteSpace=wrap;rounded=0;fillColor=#eeeeee;strokeColor=#36393d;" parent="1" vertex="1">
          <mxGeometry x="125" y="-20" width="210" height="30" as="geometry" />
        </mxCell>
        <mxCell id="isQWPGoxkEkcY4KGL05K-8" value="d_e.rq0.2_enrich_artifact_data.py" style="edgeStyle=orthogonalEdgeStyle;rounded=0;orthogonalLoop=1;jettySize=auto;html=1;fontStyle=1" parent="1" source="isQWPGoxkEkcY4KGL05K-3" target="isQWPGoxkEkcY4KGL05K-6" edge="1">
          <mxGeometry relative="1" as="geometry" />
        </mxCell>
        <mxCell id="isQWPGoxkEkcY4KGL05K-3" value="" style="shape=cylinder3;whiteSpace=wrap;html=1;boundedLbl=1;backgroundOutline=1;size=15;fillColor=#cdeb8b;strokeColor=#36393d;" parent="1" vertex="1">
          <mxGeometry x="990" y="-115" width="60" height="80" as="geometry" />
        </mxCell>
        <mxCell id="isQWPGoxkEkcY4KGL05K-4" value="rq0_1_artifacts.csv" style="text;html=1;align=center;verticalAlign=middle;whiteSpace=wrap;rounded=0;fontStyle=1" parent="1" vertex="1">
          <mxGeometry x="940" y="-22.5" width="160" height="30" as="geometry" />
        </mxCell>
        <mxCell id="KtceYd06ipeqsjsjsaXc-113" value="&lt;b&gt;d_e.rq0.utils.extract_unknown_cases.py&lt;/b&gt;" style="edgeStyle=orthogonalEdgeStyle;rounded=0;orthogonalLoop=1;jettySize=auto;html=1;entryX=0.5;entryY=1;entryDx=0;entryDy=0;" parent="1" source="isQWPGoxkEkcY4KGL05K-6" target="isQWPGoxkEkcY4KGL05K-37" edge="1">
          <mxGeometry relative="1" as="geometry" />
        </mxCell>
        <mxCell id="isQWPGoxkEkcY4KGL05K-6" value="" style="shape=cylinder3;whiteSpace=wrap;html=1;boundedLbl=1;backgroundOutline=1;size=15;fillColor=#cdeb8b;strokeColor=#36393d;" parent="1" vertex="1">
          <mxGeometry x="1500" y="-110" width="60" height="80" as="geometry" />
        </mxCell>
        <mxCell id="isQWPGoxkEkcY4KGL05K-7" value="&lt;b&gt;rq0_2_artifacts_cve_releases_count.csv&lt;/b&gt;" style="text;html=1;align=center;verticalAlign=middle;whiteSpace=wrap;rounded=0;" parent="1" vertex="1">
          <mxGeometry x="1450" y="-20" width="160" height="30" as="geometry" />
        </mxCell>
        <mxCell id="isQWPGoxkEkcY4KGL05K-12" value="artifacts" style="swimlane;fontStyle=0;childLayout=stackLayout;horizontal=1;startSize=30;horizontalStack=0;resizeParent=1;resizeParentMax=0;resizeLast=0;collapsible=1;marginBottom=0;whiteSpace=wrap;html=1;" parent="1" vertex="1">
          <mxGeometry x="950" y="17.5" width="140" height="60" as="geometry" />
        </mxCell>
        <mxCell id="isQWPGoxkEkcY4KGL05K-13" value="groupId_artifactId" style="text;strokeColor=none;fillColor=none;align=left;verticalAlign=middle;spacingLeft=4;spacingRight=4;overflow=hidden;points=[[0,0.5],[1,0.5]];portConstraint=eastwest;rotatable=0;whiteSpace=wrap;html=1;" parent="isQWPGoxkEkcY4KGL05K-12" vertex="1">
          <mxGeometry y="30" width="140" height="30" as="geometry" />
        </mxCell>
        <mxCell id="isQWPGoxkEkcY4KGL05K-16" value="artifacts_cve_releases_count" style="swimlane;fontStyle=0;childLayout=stackLayout;horizontal=1;startSize=30;horizontalStack=0;resizeParent=1;resizeParentMax=0;resizeLast=0;collapsible=1;marginBottom=0;whiteSpace=wrap;html=1;" parent="1" vertex="1">
          <mxGeometry x="1440" y="20" width="180" height="360" as="geometry" />
        </mxCell>
        <mxCell id="isQWPGoxkEkcY4KGL05K-17" value="combined_named (str)" style="text;strokeColor=none;fillColor=none;align=left;verticalAlign=middle;spacingLeft=4;spacingRight=4;overflow=hidden;points=[[0,0.5],[1,0.5]];portConstraint=eastwest;rotatable=0;whiteSpace=wrap;html=1;" parent="isQWPGoxkEkcY4KGL05K-16" vertex="1">
          <mxGeometry y="30" width="180" height="30" as="geometry" />
        </mxCell>
        <mxCell id="KtceYd06ipeqsjsjsaXc-124" value="group_id (str)" style="text;strokeColor=none;fillColor=none;align=left;verticalAlign=middle;spacingLeft=4;spacingRight=4;overflow=hidden;points=[[0,0.5],[1,0.5]];portConstraint=eastwest;rotatable=0;whiteSpace=wrap;html=1;" parent="isQWPGoxkEkcY4KGL05K-16" vertex="1">
          <mxGeometry y="60" width="180" height="30" as="geometry" />
        </mxCell>
        <mxCell id="isQWPGoxkEkcY4KGL05K-18" value="artifact_id (str)" style="text;strokeColor=none;fillColor=none;align=left;verticalAlign=middle;spacingLeft=4;spacingRight=4;overflow=hidden;points=[[0,0.5],[1,0.5]];portConstraint=eastwest;rotatable=0;whiteSpace=wrap;html=1;" parent="isQWPGoxkEkcY4KGL05K-16" vertex="1">
          <mxGeometry y="90" width="180" height="30" as="geometry" />
        </mxCell>
        <mxCell id="isQWPGoxkEkcY4KGL05K-19" value="release_count (int)" style="text;strokeColor=none;fillColor=none;align=left;verticalAlign=middle;spacingLeft=4;spacingRight=4;overflow=hidden;points=[[0,0.5],[1,0.5]];portConstraint=eastwest;rotatable=0;whiteSpace=wrap;html=1;" parent="isQWPGoxkEkcY4KGL05K-16" vertex="1">
          <mxGeometry y="120" width="180" height="30" as="geometry" />
        </mxCell>
        <mxCell id="isQWPGoxkEkcY4KGL05K-20" value="releases_with_cves (int)" style="text;strokeColor=none;fillColor=none;align=left;verticalAlign=middle;spacingLeft=4;spacingRight=4;overflow=hidden;points=[[0,0.5],[1,0.5]];portConstraint=eastwest;rotatable=0;whiteSpace=wrap;html=1;" parent="isQWPGoxkEkcY4KGL05K-16" vertex="1">
          <mxGeometry y="150" width="180" height="30" as="geometry" />
        </mxCell>
        <mxCell id="isQWPGoxkEkcY4KGL05K-21" value="total_releases_cve_count (int)" style="text;strokeColor=none;fillColor=none;align=left;verticalAlign=middle;spacingLeft=4;spacingRight=4;overflow=hidden;points=[[0,0.5],[1,0.5]];portConstraint=eastwest;rotatable=0;whiteSpace=wrap;html=1;" parent="isQWPGoxkEkcY4KGL05K-16" vertex="1">
          <mxGeometry y="180" width="180" height="30" as="geometry" />
        </mxCell>
        <mxCell id="isQWPGoxkEkcY4KGL05K-23" value="low_severity_count (int)" style="text;strokeColor=none;fillColor=none;align=left;verticalAlign=middle;spacingLeft=4;spacingRight=4;overflow=hidden;points=[[0,0.5],[1,0.5]];portConstraint=eastwest;rotatable=0;whiteSpace=wrap;html=1;" parent="isQWPGoxkEkcY4KGL05K-16" vertex="1">
          <mxGeometry y="210" width="180" height="30" as="geometry" />
        </mxCell>
        <mxCell id="isQWPGoxkEkcY4KGL05K-24" value="moderate_severity_count (int)" style="text;strokeColor=none;fillColor=none;align=left;verticalAlign=middle;spacingLeft=4;spacingRight=4;overflow=hidden;points=[[0,0.5],[1,0.5]];portConstraint=eastwest;rotatable=0;whiteSpace=wrap;html=1;" parent="isQWPGoxkEkcY4KGL05K-16" vertex="1">
          <mxGeometry y="240" width="180" height="30" as="geometry" />
        </mxCell>
        <mxCell id="isQWPGoxkEkcY4KGL05K-25" value="high_severity_count (int)" style="text;strokeColor=none;fillColor=none;align=left;verticalAlign=middle;spacingLeft=4;spacingRight=4;overflow=hidden;points=[[0,0.5],[1,0.5]];portConstraint=eastwest;rotatable=0;whiteSpace=wrap;html=1;" parent="isQWPGoxkEkcY4KGL05K-16" vertex="1">
          <mxGeometry y="270" width="180" height="30" as="geometry" />
        </mxCell>
        <mxCell id="isQWPGoxkEkcY4KGL05K-26" value="critical_severity_count (int)" style="text;strokeColor=none;fillColor=none;align=left;verticalAlign=middle;spacingLeft=4;spacingRight=4;overflow=hidden;points=[[0,0.5],[1,0.5]];portConstraint=eastwest;rotatable=0;whiteSpace=wrap;html=1;" parent="isQWPGoxkEkcY4KGL05K-16" vertex="1">
          <mxGeometry y="300" width="180" height="30" as="geometry" />
        </mxCell>
        <mxCell id="KtceYd06ipeqsjsjsaXc-102" value="unknown_severity_count (int)" style="text;strokeColor=none;fillColor=none;align=left;verticalAlign=middle;spacingLeft=4;spacingRight=4;overflow=hidden;points=[[0,0.5],[1,0.5]];portConstraint=eastwest;rotatable=0;whiteSpace=wrap;html=1;" parent="isQWPGoxkEkcY4KGL05K-16" vertex="1">
          <mxGeometry y="330" width="180" height="30" as="geometry" />
        </mxCell>
        <mxCell id="isQWPGoxkEkcY4KGL05K-30" value="&lt;font style=&quot;font-size: 48px;&quot;&gt;RQ0/RQ1&lt;/font&gt;" style="text;html=1;align=center;verticalAlign=middle;whiteSpace=wrap;rounded=0;" parent="1" vertex="1">
          <mxGeometry x="295" y="-205" width="60" height="30" as="geometry" />
        </mxCell>
        <mxCell id="isQWPGoxkEkcY4KGL05K-34" value="&lt;b&gt;**Counts are number of releases that contain the CVE&lt;/b&gt;" style="text;html=1;align=center;verticalAlign=middle;whiteSpace=wrap;rounded=0;fillColor=#bac8d3;strokeColor=#23445d;" parent="1" vertex="1">
          <mxGeometry x="1640" y="320" width="110" height="60" as="geometry" />
        </mxCell>
        <mxCell id="isQWPGoxkEkcY4KGL05K-36" value="" style="shape=cylinder3;whiteSpace=wrap;html=1;boundedLbl=1;backgroundOutline=1;size=15;fillColor=#fff2cc;strokeColor=#d6b656;" parent="1" vertex="1">
          <mxGeometry x="1500" y="-630" width="60" height="80" as="geometry" />
        </mxCell>
        <mxCell id="isQWPGoxkEkcY4KGL05K-37" value="artifacts_with_unknown_severity.csv" style="text;html=1;align=center;verticalAlign=middle;whiteSpace=wrap;rounded=0;" parent="1" vertex="1">
          <mxGeometry x="1450" y="-550" width="160" height="30" as="geometry" />
        </mxCell>
        <mxCell id="KtceYd06ipeqsjsjsaXc-46" value="d_e.rq1.2_enrich_osv_data" style="edgeStyle=orthogonalEdgeStyle;rounded=0;orthogonalLoop=1;jettySize=auto;html=1;fontStyle=1" parent="1" source="isQWPGoxkEkcY4KGL05K-42" edge="1">
          <mxGeometry x="0.0149" relative="1" as="geometry">
            <mxPoint as="offset" />
            <mxPoint x="1550" y="1100.0000000000005" as="targetPoint" />
          </mxGeometry>
        </mxCell>
        <mxCell id="isQWPGoxkEkcY4KGL05K-58" value="&lt;font style=&quot;font-size: 48px;&quot;&gt;RQ2&lt;/font&gt;" style="text;html=1;align=center;verticalAlign=middle;whiteSpace=wrap;rounded=0;" parent="1" vertex="1">
          <mxGeometry x="3060" y="-220" width="60" height="30" as="geometry" />
        </mxCell>
        <mxCell id="isQWPGoxkEkcY4KGL05K-59" value="bar_plot_severity_by_release_counts.py" style="shape=note;whiteSpace=wrap;html=1;backgroundOutline=1;darkOpacity=0.05;" parent="1" vertex="1">
          <mxGeometry x="1760" y="850" width="250" height="80" as="geometry" />
        </mxCell>
        <mxCell id="isQWPGoxkEkcY4KGL05K-60" value="bar_plot_severity_by_unique_cves.py" style="shape=note;whiteSpace=wrap;html=1;backgroundOutline=1;darkOpacity=0.05;fillColor=#d5e8d4;strokeColor=#82b366;" parent="1" vertex="1">
          <mxGeometry x="3380" y="1150" width="250" height="80" as="geometry" />
        </mxCell>
        <mxCell id="KtceYd06ipeqsjsjsaXc-140" style="edgeStyle=orthogonalEdgeStyle;rounded=0;orthogonalLoop=1;jettySize=auto;html=1;" parent="1" source="isQWPGoxkEkcY4KGL05K-145" target="KtceYd06ipeqsjsjsaXc-127" edge="1">
          <mxGeometry relative="1" as="geometry" />
        </mxCell>
        <mxCell id="D6I25iLhBcs16up5qAs6-23" value="&lt;b&gt;d_e.rq0.4_extract_unique_cves.py&lt;/b&gt;" style="edgeLabel;html=1;align=center;verticalAlign=middle;resizable=0;points=[];" vertex="1" connectable="0" parent="KtceYd06ipeqsjsjsaXc-140">
          <mxGeometry x="-0.2992" y="-1" relative="1" as="geometry">
            <mxPoint x="82" y="-1" as="offset" />
          </mxGeometry>
        </mxCell>
        <mxCell id="isQWPGoxkEkcY4KGL05K-145" value="" style="shape=cylinder3;whiteSpace=wrap;html=1;boundedLbl=1;backgroundOutline=1;size=15;fillColor=#cdeb8b;strokeColor=#36393d;" parent="1" vertex="1">
          <mxGeometry x="2020" y="-110" width="60" height="80" as="geometry" />
        </mxCell>
        <mxCell id="isQWPGoxkEkcY4KGL05K-146" value="&lt;b&gt;rq0_3_releases_cves.py&lt;/b&gt;" style="text;html=1;align=center;verticalAlign=middle;whiteSpace=wrap;rounded=0;" parent="1" vertex="1">
          <mxGeometry x="1970" y="-30" width="160" height="30" as="geometry" />
        </mxCell>
        <mxCell id="isQWPGoxkEkcY4KGL05K-147" value="&lt;b&gt;d_e.rq0.3_extract_releases_cves.py&lt;/b&gt;" style="edgeStyle=orthogonalEdgeStyle;rounded=0;orthogonalLoop=1;jettySize=auto;html=1;entryX=0;entryY=0.5;entryDx=0;entryDy=0;entryPerimeter=0;" parent="1" source="isQWPGoxkEkcY4KGL05K-6" target="isQWPGoxkEkcY4KGL05K-145" edge="1">
          <mxGeometry relative="1" as="geometry" />
        </mxCell>
        <mxCell id="isQWPGoxkEkcY4KGL05K-148" value="releases_with_cves" style="swimlane;fontStyle=0;childLayout=stackLayout;horizontal=1;startSize=30;horizontalStack=0;resizeParent=1;resizeParentMax=0;resizeLast=0;collapsible=1;marginBottom=0;whiteSpace=wrap;html=1;" parent="1" vertex="1">
          <mxGeometry x="1960" width="180" height="240" as="geometry" />
        </mxCell>
        <mxCell id="isQWPGoxkEkcY4KGL05K-149" value="combined_name (str)" style="text;strokeColor=none;fillColor=none;align=left;verticalAlign=middle;spacingLeft=4;spacingRight=4;overflow=hidden;points=[[0,0.5],[1,0.5]];portConstraint=eastwest;rotatable=0;whiteSpace=wrap;html=1;" parent="isQWPGoxkEkcY4KGL05K-148" vertex="1">
          <mxGeometry y="30" width="180" height="30" as="geometry" />
        </mxCell>
        <mxCell id="KtceYd06ipeqsjsjsaXc-125" value="group_id (str)" style="text;strokeColor=none;fillColor=none;align=left;verticalAlign=middle;spacingLeft=4;spacingRight=4;overflow=hidden;points=[[0,0.5],[1,0.5]];portConstraint=eastwest;rotatable=0;whiteSpace=wrap;html=1;" parent="isQWPGoxkEkcY4KGL05K-148" vertex="1">
          <mxGeometry y="60" width="180" height="30" as="geometry" />
        </mxCell>
        <mxCell id="KtceYd06ipeqsjsjsaXc-123" value="artifact_id (str)" style="text;strokeColor=none;fillColor=none;align=left;verticalAlign=middle;spacingLeft=4;spacingRight=4;overflow=hidden;points=[[0,0.5],[1,0.5]];portConstraint=eastwest;rotatable=0;whiteSpace=wrap;html=1;" parent="isQWPGoxkEkcY4KGL05K-148" vertex="1">
          <mxGeometry y="90" width="180" height="30" as="geometry" />
        </mxCell>
        <mxCell id="isQWPGoxkEkcY4KGL05K-150" value="release_version (str)" style="text;strokeColor=none;fillColor=none;align=left;verticalAlign=middle;spacingLeft=4;spacingRight=4;overflow=hidden;points=[[0,0.5],[1,0.5]];portConstraint=eastwest;rotatable=0;whiteSpace=wrap;html=1;" parent="isQWPGoxkEkcY4KGL05K-148" vertex="1">
          <mxGeometry y="120" width="180" height="30" as="geometry" />
        </mxCell>
        <mxCell id="isQWPGoxkEkcY4KGL05K-151" value="release_timestamp (datetime)" style="text;strokeColor=none;fillColor=none;align=left;verticalAlign=middle;spacingLeft=4;spacingRight=4;overflow=hidden;points=[[0,0.5],[1,0.5]];portConstraint=eastwest;rotatable=0;whiteSpace=wrap;html=1;" parent="isQWPGoxkEkcY4KGL05K-148" vertex="1">
          <mxGeometry y="150" width="180" height="30" as="geometry" />
        </mxCell>
        <mxCell id="isQWPGoxkEkcY4KGL05K-152" value="cve_id (str)" style="text;strokeColor=none;fillColor=none;align=left;verticalAlign=middle;spacingLeft=4;spacingRight=4;overflow=hidden;points=[[0,0.5],[1,0.5]];portConstraint=eastwest;rotatable=0;whiteSpace=wrap;html=1;" parent="isQWPGoxkEkcY4KGL05K-148" vertex="1">
          <mxGeometry y="180" width="180" height="30" as="geometry" />
        </mxCell>
        <mxCell id="isQWPGoxkEkcY4KGL05K-153" value="cve_severity (enum)" style="text;strokeColor=none;fillColor=none;align=left;verticalAlign=middle;spacingLeft=4;spacingRight=4;overflow=hidden;points=[[0,0.5],[1,0.5]];portConstraint=eastwest;rotatable=0;whiteSpace=wrap;html=1;" parent="isQWPGoxkEkcY4KGL05K-148" vertex="1">
          <mxGeometry y="210" width="180" height="30" as="geometry" />
        </mxCell>
        <mxCell id="isQWPGoxkEkcY4KGL05K-172" value="cdf_over_time.py" style="shape=note;whiteSpace=wrap;html=1;backgroundOutline=1;darkOpacity=0.05;fillColor=#d5e8d4;strokeColor=#82b366;" parent="1" vertex="1">
          <mxGeometry x="3180" y="1000" width="160" height="60" as="geometry" />
        </mxCell>
        <mxCell id="isQWPGoxkEkcY4KGL05K-173" value="histogram_lifetime.py" style="shape=note;whiteSpace=wrap;html=1;backgroundOutline=1;darkOpacity=0.05;fillColor=#d5e8d4;strokeColor=#82b366;" parent="1" vertex="1">
          <mxGeometry x="3180" y="1090" width="160" height="60" as="geometry" />
        </mxCell>
        <mxCell id="isQWPGoxkEkcY4KGL05K-174" value="mean_time_to_mitigate.py" style="shape=note;whiteSpace=wrap;html=1;backgroundOutline=1;darkOpacity=0.05;fillColor=#d5e8d4;strokeColor=#82b366;" parent="1" vertex="1">
          <mxGeometry x="3180" y="1180" width="160" height="60" as="geometry" />
        </mxCell>
        <mxCell id="isQWPGoxkEkcY4KGL05K-175" value="density_ploy.py" style="shape=note;whiteSpace=wrap;html=1;backgroundOutline=1;darkOpacity=0.05;fillColor=#d5e8d4;strokeColor=#82b366;" parent="1" vertex="1">
          <mxGeometry x="3180" y="1270" width="160" height="60" as="geometry" />
        </mxCell>
        <mxCell id="V_G0D9gJ66jb_5gnnuKC-29" value="" style="shape=cylinder3;whiteSpace=wrap;html=1;boundedLbl=1;backgroundOutline=1;size=15;fillColor=#ffff88;strokeColor=#36393d;" parent="1" vertex="1">
          <mxGeometry x="3910" y="1545" width="60" height="80" as="geometry" />
        </mxCell>
        <mxCell id="V_G0D9gJ66jb_5gnnuKC-30" value="GHArchive" style="text;html=1;align=center;verticalAlign=middle;whiteSpace=wrap;rounded=0;fillColor=#ffff88;strokeColor=#36393d;" parent="1" vertex="1">
          <mxGeometry x="3860" y="1635" width="160" height="30" as="geometry" />
        </mxCell>
        <mxCell id="V_G0D9gJ66jb_5gnnuKC-31" value="GHArchive" style="swimlane;fontStyle=0;childLayout=stackLayout;horizontal=1;startSize=30;horizontalStack=0;resizeParent=1;resizeParentMax=0;resizeLast=0;collapsible=1;marginBottom=0;whiteSpace=wrap;html=1;fillColor=#ffff88;strokeColor=#36393d;" parent="1" vertex="1">
          <mxGeometry x="3850" y="1675" width="180" height="300" as="geometry" />
        </mxCell>
        <mxCell id="V_G0D9gJ66jb_5gnnuKC-32" value="type: string" style="text;strokeColor=none;fillColor=none;align=left;verticalAlign=middle;spacingLeft=4;spacingRight=4;overflow=hidden;points=[[0,0.5],[1,0.5]];portConstraint=eastwest;rotatable=0;whiteSpace=wrap;html=1;" parent="V_G0D9gJ66jb_5gnnuKC-31" vertex="1">
          <mxGeometry y="30" width="180" height="30" as="geometry" />
        </mxCell>
        <mxCell id="V_G0D9gJ66jb_5gnnuKC-33" value="public: bool" style="text;strokeColor=none;fillColor=none;align=left;verticalAlign=middle;spacingLeft=4;spacingRight=4;overflow=hidden;points=[[0,0.5],[1,0.5]];portConstraint=eastwest;rotatable=0;whiteSpace=wrap;html=1;" parent="V_G0D9gJ66jb_5gnnuKC-31" vertex="1">
          <mxGeometry y="60" width="180" height="30" as="geometry" />
        </mxCell>
        <mxCell id="V_G0D9gJ66jb_5gnnuKC-34" value="payload: string" style="text;strokeColor=none;fillColor=none;align=left;verticalAlign=middle;spacingLeft=4;spacingRight=4;overflow=hidden;points=[[0,0.5],[1,0.5]];portConstraint=eastwest;rotatable=0;whiteSpace=wrap;html=1;" parent="V_G0D9gJ66jb_5gnnuKC-31" vertex="1">
          <mxGeometry y="90" width="180" height="30" as="geometry" />
        </mxCell>
        <mxCell id="V_G0D9gJ66jb_5gnnuKC-35" value="repo: Repo" style="text;strokeColor=none;fillColor=none;align=left;verticalAlign=middle;spacingLeft=4;spacingRight=4;overflow=hidden;points=[[0,0.5],[1,0.5]];portConstraint=eastwest;rotatable=0;whiteSpace=wrap;html=1;" parent="V_G0D9gJ66jb_5gnnuKC-31" vertex="1">
          <mxGeometry y="120" width="180" height="30" as="geometry" />
        </mxCell>
        <mxCell id="V_G0D9gJ66jb_5gnnuKC-36" value="actor: Actor" style="text;strokeColor=none;fillColor=none;align=left;verticalAlign=middle;spacingLeft=4;spacingRight=4;overflow=hidden;points=[[0,0.5],[1,0.5]];portConstraint=eastwest;rotatable=0;whiteSpace=wrap;html=1;" parent="V_G0D9gJ66jb_5gnnuKC-31" vertex="1">
          <mxGeometry y="150" width="180" height="30" as="geometry" />
        </mxCell>
        <mxCell id="V_G0D9gJ66jb_5gnnuKC-37" value="org: Org" style="text;strokeColor=none;fillColor=none;align=left;verticalAlign=middle;spacingLeft=4;spacingRight=4;overflow=hidden;points=[[0,0.5],[1,0.5]];portConstraint=eastwest;rotatable=0;whiteSpace=wrap;html=1;" parent="V_G0D9gJ66jb_5gnnuKC-31" vertex="1">
          <mxGeometry y="180" width="180" height="30" as="geometry" />
        </mxCell>
        <mxCell id="V_G0D9gJ66jb_5gnnuKC-38" value="created_at: timestamp" style="text;strokeColor=none;fillColor=none;align=left;verticalAlign=middle;spacingLeft=4;spacingRight=4;overflow=hidden;points=[[0,0.5],[1,0.5]];portConstraint=eastwest;rotatable=0;whiteSpace=wrap;html=1;" parent="V_G0D9gJ66jb_5gnnuKC-31" vertex="1">
          <mxGeometry y="210" width="180" height="30" as="geometry" />
        </mxCell>
        <mxCell id="V_G0D9gJ66jb_5gnnuKC-39" value="id: string" style="text;strokeColor=none;fillColor=none;align=left;verticalAlign=middle;spacingLeft=4;spacingRight=4;overflow=hidden;points=[[0,0.5],[1,0.5]];portConstraint=eastwest;rotatable=0;whiteSpace=wrap;html=1;" parent="V_G0D9gJ66jb_5gnnuKC-31" vertex="1">
          <mxGeometry y="240" width="180" height="30" as="geometry" />
        </mxCell>
        <mxCell id="V_G0D9gJ66jb_5gnnuKC-40" value="other: string" style="text;strokeColor=none;fillColor=none;align=left;verticalAlign=middle;spacingLeft=4;spacingRight=4;overflow=hidden;points=[[0,0.5],[1,0.5]];portConstraint=eastwest;rotatable=0;whiteSpace=wrap;html=1;" parent="V_G0D9gJ66jb_5gnnuKC-31" vertex="1">
          <mxGeometry y="270" width="180" height="30" as="geometry" />
        </mxCell>
        <mxCell id="V_G0D9gJ66jb_5gnnuKC-41" value="Repo" style="swimlane;fontStyle=0;childLayout=stackLayout;horizontal=1;startSize=30;horizontalStack=0;resizeParent=1;resizeParentMax=0;resizeLast=0;collapsible=1;marginBottom=0;whiteSpace=wrap;html=1;fillColor=#ffff88;strokeColor=#36393d;" parent="1" vertex="1">
          <mxGeometry x="4225" y="1565" width="180" height="120" as="geometry" />
        </mxCell>
        <mxCell id="V_G0D9gJ66jb_5gnnuKC-42" value="id: int" style="text;strokeColor=none;fillColor=none;align=left;verticalAlign=middle;spacingLeft=4;spacingRight=4;overflow=hidden;points=[[0,0.5],[1,0.5]];portConstraint=eastwest;rotatable=0;whiteSpace=wrap;html=1;" parent="V_G0D9gJ66jb_5gnnuKC-41" vertex="1">
          <mxGeometry y="30" width="180" height="30" as="geometry" />
        </mxCell>
        <mxCell id="V_G0D9gJ66jb_5gnnuKC-43" value="name: string" style="text;strokeColor=none;fillColor=none;align=left;verticalAlign=middle;spacingLeft=4;spacingRight=4;overflow=hidden;points=[[0,0.5],[1,0.5]];portConstraint=eastwest;rotatable=0;whiteSpace=wrap;html=1;" parent="V_G0D9gJ66jb_5gnnuKC-41" vertex="1">
          <mxGeometry y="60" width="180" height="30" as="geometry" />
        </mxCell>
        <mxCell id="V_G0D9gJ66jb_5gnnuKC-44" value="url: string" style="text;strokeColor=none;fillColor=none;align=left;verticalAlign=middle;spacingLeft=4;spacingRight=4;overflow=hidden;points=[[0,0.5],[1,0.5]];portConstraint=eastwest;rotatable=0;whiteSpace=wrap;html=1;" parent="V_G0D9gJ66jb_5gnnuKC-41" vertex="1">
          <mxGeometry y="90" width="180" height="30" as="geometry" />
        </mxCell>
        <mxCell id="V_G0D9gJ66jb_5gnnuKC-52" value="Actor" style="swimlane;fontStyle=0;childLayout=stackLayout;horizontal=1;startSize=30;horizontalStack=0;resizeParent=1;resizeParentMax=0;resizeLast=0;collapsible=1;marginBottom=0;whiteSpace=wrap;html=1;fillColor=#ffff88;strokeColor=#36393d;" parent="1" vertex="1">
          <mxGeometry x="4225" y="1785" width="180" height="180" as="geometry" />
        </mxCell>
        <mxCell id="V_G0D9gJ66jb_5gnnuKC-53" value="id: int" style="text;strokeColor=none;fillColor=none;align=left;verticalAlign=middle;spacingLeft=4;spacingRight=4;overflow=hidden;points=[[0,0.5],[1,0.5]];portConstraint=eastwest;rotatable=0;whiteSpace=wrap;html=1;" parent="V_G0D9gJ66jb_5gnnuKC-52" vertex="1">
          <mxGeometry y="30" width="180" height="30" as="geometry" />
        </mxCell>
        <mxCell id="V_G0D9gJ66jb_5gnnuKC-54" value="login: string" style="text;strokeColor=none;fillColor=none;align=left;verticalAlign=middle;spacingLeft=4;spacingRight=4;overflow=hidden;points=[[0,0.5],[1,0.5]];portConstraint=eastwest;rotatable=0;whiteSpace=wrap;html=1;" parent="V_G0D9gJ66jb_5gnnuKC-52" vertex="1">
          <mxGeometry y="60" width="180" height="30" as="geometry" />
        </mxCell>
        <mxCell id="V_G0D9gJ66jb_5gnnuKC-55" value="gravatar_id: string" style="text;strokeColor=none;fillColor=none;align=left;verticalAlign=middle;spacingLeft=4;spacingRight=4;overflow=hidden;points=[[0,0.5],[1,0.5]];portConstraint=eastwest;rotatable=0;whiteSpace=wrap;html=1;" parent="V_G0D9gJ66jb_5gnnuKC-52" vertex="1">
          <mxGeometry y="90" width="180" height="30" as="geometry" />
        </mxCell>
        <mxCell id="V_G0D9gJ66jb_5gnnuKC-57" value="avatar_url: string" style="text;strokeColor=none;fillColor=none;align=left;verticalAlign=middle;spacingLeft=4;spacingRight=4;overflow=hidden;points=[[0,0.5],[1,0.5]];portConstraint=eastwest;rotatable=0;whiteSpace=wrap;html=1;" parent="V_G0D9gJ66jb_5gnnuKC-52" vertex="1">
          <mxGeometry y="120" width="180" height="30" as="geometry" />
        </mxCell>
        <mxCell id="V_G0D9gJ66jb_5gnnuKC-58" value="url: string" style="text;strokeColor=none;fillColor=none;align=left;verticalAlign=middle;spacingLeft=4;spacingRight=4;overflow=hidden;points=[[0,0.5],[1,0.5]];portConstraint=eastwest;rotatable=0;whiteSpace=wrap;html=1;" parent="V_G0D9gJ66jb_5gnnuKC-52" vertex="1">
          <mxGeometry y="150" width="180" height="30" as="geometry" />
        </mxCell>
        <mxCell id="V_G0D9gJ66jb_5gnnuKC-59" value="Org" style="swimlane;fontStyle=0;childLayout=stackLayout;horizontal=1;startSize=30;horizontalStack=0;resizeParent=1;resizeParentMax=0;resizeLast=0;collapsible=1;marginBottom=0;whiteSpace=wrap;html=1;fillColor=#ffff88;strokeColor=#36393d;" parent="1" vertex="1">
          <mxGeometry x="4225" y="2005" width="180" height="180" as="geometry" />
        </mxCell>
        <mxCell id="V_G0D9gJ66jb_5gnnuKC-60" value="id: int" style="text;strokeColor=none;fillColor=none;align=left;verticalAlign=middle;spacingLeft=4;spacingRight=4;overflow=hidden;points=[[0,0.5],[1,0.5]];portConstraint=eastwest;rotatable=0;whiteSpace=wrap;html=1;" parent="V_G0D9gJ66jb_5gnnuKC-59" vertex="1">
          <mxGeometry y="30" width="180" height="30" as="geometry" />
        </mxCell>
        <mxCell id="V_G0D9gJ66jb_5gnnuKC-61" value="login: string" style="text;strokeColor=none;fillColor=none;align=left;verticalAlign=middle;spacingLeft=4;spacingRight=4;overflow=hidden;points=[[0,0.5],[1,0.5]];portConstraint=eastwest;rotatable=0;whiteSpace=wrap;html=1;" parent="V_G0D9gJ66jb_5gnnuKC-59" vertex="1">
          <mxGeometry y="60" width="180" height="30" as="geometry" />
        </mxCell>
        <mxCell id="V_G0D9gJ66jb_5gnnuKC-62" value="gravatar_id: string" style="text;strokeColor=none;fillColor=none;align=left;verticalAlign=middle;spacingLeft=4;spacingRight=4;overflow=hidden;points=[[0,0.5],[1,0.5]];portConstraint=eastwest;rotatable=0;whiteSpace=wrap;html=1;" parent="V_G0D9gJ66jb_5gnnuKC-59" vertex="1">
          <mxGeometry y="90" width="180" height="30" as="geometry" />
        </mxCell>
        <mxCell id="V_G0D9gJ66jb_5gnnuKC-63" value="avatar_url: string" style="text;strokeColor=none;fillColor=none;align=left;verticalAlign=middle;spacingLeft=4;spacingRight=4;overflow=hidden;points=[[0,0.5],[1,0.5]];portConstraint=eastwest;rotatable=0;whiteSpace=wrap;html=1;" parent="V_G0D9gJ66jb_5gnnuKC-59" vertex="1">
          <mxGeometry y="120" width="180" height="30" as="geometry" />
        </mxCell>
        <mxCell id="V_G0D9gJ66jb_5gnnuKC-64" value="url: string" style="text;strokeColor=none;fillColor=none;align=left;verticalAlign=middle;spacingLeft=4;spacingRight=4;overflow=hidden;points=[[0,0.5],[1,0.5]];portConstraint=eastwest;rotatable=0;whiteSpace=wrap;html=1;" parent="V_G0D9gJ66jb_5gnnuKC-59" vertex="1">
          <mxGeometry y="150" width="180" height="30" as="geometry" />
        </mxCell>
        <mxCell id="V_G0D9gJ66jb_5gnnuKC-65" style="edgeStyle=orthogonalEdgeStyle;rounded=0;orthogonalLoop=1;jettySize=auto;html=1;" parent="1" source="V_G0D9gJ66jb_5gnnuKC-36" target="V_G0D9gJ66jb_5gnnuKC-52" edge="1">
          <mxGeometry relative="1" as="geometry" />
        </mxCell>
        <mxCell id="V_G0D9gJ66jb_5gnnuKC-66" style="edgeStyle=orthogonalEdgeStyle;rounded=0;orthogonalLoop=1;jettySize=auto;html=1;" parent="1" source="V_G0D9gJ66jb_5gnnuKC-35" target="V_G0D9gJ66jb_5gnnuKC-41" edge="1">
          <mxGeometry relative="1" as="geometry">
            <Array as="points">
              <mxPoint x="4130" y="1810" />
              <mxPoint x="4130" y="1625" />
            </Array>
          </mxGeometry>
        </mxCell>
        <mxCell id="V_G0D9gJ66jb_5gnnuKC-67" style="edgeStyle=orthogonalEdgeStyle;rounded=0;orthogonalLoop=1;jettySize=auto;html=1;" parent="1" source="V_G0D9gJ66jb_5gnnuKC-37" target="V_G0D9gJ66jb_5gnnuKC-59" edge="1">
          <mxGeometry relative="1" as="geometry">
            <Array as="points">
              <mxPoint x="4120" y="1870" />
              <mxPoint x="4120" y="2095" />
            </Array>
          </mxGeometry>
        </mxCell>
        <mxCell id="V_G0D9gJ66jb_5gnnuKC-68" value="Other Tables:&lt;div&gt;* Year (2021, 2022)&lt;/div&gt;&lt;div&gt;* Month (201501, 201502)&lt;/div&gt;&lt;div&gt;* Day (20150101, 20150102)&lt;/div&gt;" style="text;html=1;align=left;verticalAlign=middle;whiteSpace=wrap;rounded=0;fontStyle=1" parent="1" vertex="1">
          <mxGeometry x="3860" y="1995" width="160" height="60" as="geometry" />
        </mxCell>
        <mxCell id="V_G0D9gJ66jb_5gnnuKC-70" style="edgeStyle=orthogonalEdgeStyle;rounded=0;orthogonalLoop=1;jettySize=auto;html=1;" parent="1" source="V_G0D9gJ66jb_5gnnuKC-69" target="V_G0D9gJ66jb_5gnnuKC-32" edge="1">
          <mxGeometry relative="1" as="geometry" />
        </mxCell>
        <UserObject label="https://developer.github.com/v3/activity/events/types/" link="https://developer.github.com/v3/activity/events/types/" id="V_G0D9gJ66jb_5gnnuKC-69">
          <mxCell style="text;whiteSpace=wrap;fillColor=#f8cecc;gradientColor=#ea6b66;strokeColor=#b85450;" parent="1" vertex="1">
            <mxGeometry x="3410" y="1705" width="290" height="30" as="geometry" />
          </mxCell>
        </UserObject>
        <mxCell id="V_G0D9gJ66jb_5gnnuKC-72" style="edgeStyle=orthogonalEdgeStyle;rounded=0;orthogonalLoop=1;jettySize=auto;html=1;" parent="1" source="V_G0D9gJ66jb_5gnnuKC-71" target="V_G0D9gJ66jb_5gnnuKC-32" edge="1">
          <mxGeometry relative="1" as="geometry">
            <Array as="points">
              <mxPoint x="3770" y="1765" />
              <mxPoint x="3770" y="1720" />
            </Array>
          </mxGeometry>
        </mxCell>
        <UserObject label="https://docs.github.com/en/rest/using-the-rest-api/github-event-types?apiVersion=2022-11-28" link="https://docs.github.com/en/rest/using-the-rest-api/github-event-types?apiVersion=2022-11-28" id="V_G0D9gJ66jb_5gnnuKC-71">
          <mxCell style="text;whiteSpace=wrap;fillColor=#f8cecc;gradientColor=#ea6b66;strokeColor=#b85450;" parent="1" vertex="1">
            <mxGeometry x="3230" y="1745" width="500" height="30" as="geometry" />
          </mxCell>
        </UserObject>
        <mxCell id="KtceYd06ipeqsjsjsaXc-7" value="&lt;font style=&quot;font-size: 18px;&quot;&gt;658,078 Rows&lt;/font&gt;" style="text;html=1;align=center;verticalAlign=middle;whiteSpace=wrap;rounded=0;fillColor=#ffe6cc;strokeColor=#d79b00;fontStyle=1" parent="1" vertex="1">
          <mxGeometry x="950" y="140" width="140" height="30" as="geometry" />
        </mxCell>
        <mxCell id="KtceYd06ipeqsjsjsaXc-8" value="&lt;font style=&quot;font-size: 18px;&quot;&gt;All Artifacts&lt;/font&gt;" style="text;html=1;align=center;verticalAlign=middle;whiteSpace=wrap;rounded=0;fillColor=#ffe6cc;strokeColor=#d79b00;fontStyle=1" parent="1" vertex="1">
          <mxGeometry x="950" y="110" width="140" height="30" as="geometry" />
        </mxCell>
        <mxCell id="KtceYd06ipeqsjsjsaXc-9" value="&lt;font style=&quot;font-size: 18px;&quot;&gt;1,452 Rows&lt;/font&gt;" style="text;html=1;align=center;verticalAlign=middle;whiteSpace=wrap;rounded=0;fillColor=#ffe6cc;strokeColor=#d79b00;fontStyle=1" parent="1" vertex="1">
          <mxGeometry x="1440" y="445" width="180" height="30" as="geometry" />
        </mxCell>
        <mxCell id="KtceYd06ipeqsjsjsaXc-10" value="&lt;font style=&quot;font-size: 15px;&quot;&gt;Artifact w CVE Counts&lt;/font&gt;" style="text;html=1;align=center;verticalAlign=middle;whiteSpace=wrap;rounded=0;fillColor=#ffe6cc;strokeColor=#d79b00;fontStyle=1" parent="1" vertex="1">
          <mxGeometry x="1440" y="415" width="180" height="30" as="geometry" />
        </mxCell>
        <mxCell id="KtceYd06ipeqsjsjsaXc-11" value="&lt;font style=&quot;font-size: 18px;&quot;&gt;2 Rows&lt;/font&gt;" style="text;html=1;align=center;verticalAlign=middle;whiteSpace=wrap;rounded=0;fillColor=#ffe6cc;strokeColor=#d79b00;fontStyle=1" parent="1" vertex="1">
          <mxGeometry x="1430" y="-670" width="200" height="30" as="geometry" />
        </mxCell>
        <mxCell id="KtceYd06ipeqsjsjsaXc-12" value="&lt;font style=&quot;font-size: 18px;&quot;&gt;Unknown Severity&lt;/font&gt;" style="text;html=1;align=center;verticalAlign=middle;whiteSpace=wrap;rounded=0;fillColor=#ffe6cc;strokeColor=#d79b00;fontStyle=1" parent="1" vertex="1">
          <mxGeometry x="1430" y="-700" width="200" height="30" as="geometry" />
        </mxCell>
        <mxCell id="KtceYd06ipeqsjsjsaXc-13" value="&lt;font style=&quot;font-size: 18px;&quot;&gt;183,261 Rows&lt;/font&gt;" style="text;html=1;align=center;verticalAlign=middle;whiteSpace=wrap;rounded=0;fillColor=#ffe6cc;strokeColor=#d79b00;fontStyle=1" parent="1" vertex="1">
          <mxGeometry x="1960" y="305" width="180" height="30" as="geometry" />
        </mxCell>
        <mxCell id="KtceYd06ipeqsjsjsaXc-14" value="&lt;font style=&quot;font-size: 16px;&quot;&gt;Releases w CVEs&lt;/font&gt;" style="text;html=1;align=center;verticalAlign=middle;whiteSpace=wrap;rounded=0;fillColor=#ffe6cc;strokeColor=#d79b00;fontStyle=1" parent="1" vertex="1">
          <mxGeometry x="1960" y="275" width="180" height="30" as="geometry" />
        </mxCell>
        <mxCell id="KtceYd06ipeqsjsjsaXc-99" value="&lt;font style=&quot;font-size: 15px;&quot;&gt;Using Neo4J DB Instance&lt;/font&gt;" style="text;html=1;align=center;verticalAlign=middle;whiteSpace=wrap;rounded=0;fillColor=#f5f5f5;strokeColor=#666666;fontStyle=1;fontColor=#333333;" parent="1" vertex="1">
          <mxGeometry x="530" y="-150" width="190" height="30" as="geometry" />
        </mxCell>
        <mxCell id="KtceYd06ipeqsjsjsaXc-100" value="&lt;font style=&quot;font-size: 16px;&quot;&gt;Using Goblin Weaver&lt;/font&gt;" style="text;html=1;align=center;verticalAlign=middle;whiteSpace=wrap;rounded=0;fillColor=#f5f5f5;strokeColor=#666666;fontStyle=1;fontColor=#333333;fontSize=16;" parent="1" vertex="1">
          <mxGeometry x="530" y="-115" width="190" height="30" as="geometry" />
        </mxCell>
        <mxCell id="KtceYd06ipeqsjsjsaXc-101" value="&lt;b&gt;&lt;font style=&quot;font-size: 11px;&quot;&gt;No Headers&lt;/font&gt;&lt;/b&gt;" style="rounded=0;whiteSpace=wrap;html=1;fillColor=#bac8d3;strokeColor=#23445d;" parent="1" vertex="1">
          <mxGeometry x="950" y="85" width="140" height="25" as="geometry" />
        </mxCell>
        <mxCell id="KtceYd06ipeqsjsjsaXc-104" value="&lt;b&gt;&lt;font style=&quot;font-size: 11px;&quot;&gt;Has Headers&lt;/font&gt;&lt;/b&gt;" style="rounded=0;whiteSpace=wrap;html=1;fillColor=#bac8d3;strokeColor=#23445d;" parent="1" vertex="1">
          <mxGeometry x="1440" y="390" width="180" height="25" as="geometry" />
        </mxCell>
        <mxCell id="KtceYd06ipeqsjsjsaXc-106" value="Has Flag for: Filter Unknown Severity" style="html=1;verticalLabelPosition=bottom;align=left;labelBackgroundColor=#ffffff;verticalAlign=top;strokeWidth=2;strokeColor=#82b366;shadow=0;dashed=0;shape=mxgraph.ios7.icons.flag;fillColor=#d5e8d4;" parent="1" vertex="1">
          <mxGeometry x="1180" y="-220" width="30" height="30" as="geometry" />
        </mxCell>
        <mxCell id="KtceYd06ipeqsjsjsaXc-107" value="Has Flag for: Filter CVE Count &amp;gt; 0" style="html=1;verticalLabelPosition=bottom;align=left;labelBackgroundColor=#ffffff;verticalAlign=top;strokeWidth=2;strokeColor=#82b366;shadow=0;dashed=0;shape=mxgraph.ios7.icons.flag;fillColor=#d5e8d4;" parent="1" vertex="1">
          <mxGeometry x="1180" y="-157.5" width="30" height="30" as="geometry" />
        </mxCell>
        <mxCell id="KtceYd06ipeqsjsjsaXc-108" value="Goal of first RQ0 is to:&lt;br&gt;* affect artifacts&lt;div style=&quot;&quot;&gt;* affected releases&lt;/div&gt;&lt;div&gt;* unique cves&lt;/div&gt;" style="text;html=1;align=left;verticalAlign=middle;whiteSpace=wrap;rounded=0;fillColor=#b0e3e6;strokeColor=#0e8088;" parent="1" vertex="1">
          <mxGeometry x="70" y="-220" width="130" height="70" as="geometry" />
        </mxCell>
        <mxCell id="KtceYd06ipeqsjsjsaXc-109" value="Can have release with more than one CVE" style="text;html=1;align=center;verticalAlign=middle;whiteSpace=wrap;rounded=0;" parent="1" vertex="1">
          <mxGeometry x="1640" y="140" width="140" height="30" as="geometry" />
        </mxCell>
        <mxCell id="KtceYd06ipeqsjsjsaXc-110" value="total_releases_cve_count: total count of release instances of CVEs.&lt;div&gt;&lt;br&gt;&lt;div&gt;If a CVE affects many releases before getting patched, it will get counted multiple times here.&lt;/div&gt;&lt;div&gt;&lt;br&gt;&lt;/div&gt;&lt;/div&gt;&lt;div&gt;releases_with_cves: if there are multiple CVEs within&lt;/div&gt;" style="text;html=1;align=left;verticalAlign=middle;whiteSpace=wrap;rounded=0;" parent="1" vertex="1">
          <mxGeometry x="1640" y="390" width="140" height="200" as="geometry" />
        </mxCell>
        <mxCell id="KtceYd06ipeqsjsjsaXc-112" value="&lt;b&gt;&lt;font style=&quot;font-size: 11px;&quot;&gt;Has Headers&lt;/font&gt;&lt;/b&gt;" style="rounded=0;whiteSpace=wrap;html=1;fillColor=#bac8d3;strokeColor=#23445d;" parent="1" vertex="1">
          <mxGeometry x="1960" y="250" width="180" height="25" as="geometry" />
        </mxCell>
        <mxCell id="KtceYd06ipeqsjsjsaXc-114" value="Input Data" style="shape=cylinder3;whiteSpace=wrap;html=1;boundedLbl=1;backgroundOutline=1;size=15;fillColor=#eeeeee;strokeColor=#36393d;" parent="1" vertex="1">
          <mxGeometry x="60" y="-630" width="60" height="80" as="geometry" />
        </mxCell>
        <mxCell id="KtceYd06ipeqsjsjsaXc-115" value="Main Path" style="shape=cylinder3;whiteSpace=wrap;html=1;boundedLbl=1;backgroundOutline=1;size=15;fillColor=#6d8764;fontColor=#ffffff;strokeColor=#3A5431;" parent="1" vertex="1">
          <mxGeometry x="60" y="-540" width="60" height="80" as="geometry" />
        </mxCell>
        <mxCell id="KtceYd06ipeqsjsjsaXc-116" value="Side Investigation" style="shape=cylinder3;whiteSpace=wrap;html=1;boundedLbl=1;backgroundOutline=1;size=15;fillColor=#fff2cc;strokeColor=#d6b656;" parent="1" vertex="1">
          <mxGeometry x="60" y="-440" width="60" height="80" as="geometry" />
        </mxCell>
        <mxCell id="KtceYd06ipeqsjsjsaXc-117" value="Legacy" style="shape=cylinder3;whiteSpace=wrap;html=1;boundedLbl=1;backgroundOutline=1;size=15;fillColor=#e1d5e7;strokeColor=#9673a6;" parent="1" vertex="1">
          <mxGeometry x="60" y="-730" width="60" height="80" as="geometry" />
        </mxCell>
        <mxCell id="KtceYd06ipeqsjsjsaXc-118" value="&lt;div&gt;Artifact&lt;/div&gt;&lt;div&gt;Table or Figure&lt;/div&gt;" style="shape=note;whiteSpace=wrap;html=1;backgroundOutline=1;darkOpacity=0.05;fillColor=#e1d5e7;strokeColor=#9673a6;" parent="1" vertex="1">
          <mxGeometry x="170" y="-730" width="110" height="80" as="geometry" />
        </mxCell>
        <mxCell id="KtceYd06ipeqsjsjsaXc-119" value="&lt;div&gt;Artifact&lt;/div&gt;&lt;div&gt;Table or Figure&lt;/div&gt;" style="shape=note;whiteSpace=wrap;html=1;backgroundOutline=1;darkOpacity=0.05;fillColor=#d5e8d4;strokeColor=#82b366;" parent="1" vertex="1">
          <mxGeometry x="170" y="-540" width="110" height="80" as="geometry" />
        </mxCell>
        <mxCell id="KtceYd06ipeqsjsjsaXc-121" value="&lt;div&gt;Artifact&lt;/div&gt;&lt;div&gt;Table or Figure&lt;/div&gt;" style="shape=note;whiteSpace=wrap;html=1;backgroundOutline=1;darkOpacity=0.05;fillColor=#fff2cc;strokeColor=#d6b656;" parent="1" vertex="1">
          <mxGeometry x="170" y="-440" width="110" height="80" as="geometry" />
        </mxCell>
        <mxCell id="KtceYd06ipeqsjsjsaXc-122" value="Todo:&lt;br&gt;Add schema of node" style="text;html=1;align=left;verticalAlign=middle;whiteSpace=wrap;rounded=0;fillColor=#b0e3e6;strokeColor=#0e8088;" parent="1" vertex="1">
          <mxGeometry x="920" y="-820" width="130" height="70" as="geometry" />
        </mxCell>
        <mxCell id="KtceYd06ipeqsjsjsaXc-126" value="Has Flag for: Filter Unknown CVE ID" style="html=1;verticalLabelPosition=bottom;align=left;labelBackgroundColor=#ffffff;verticalAlign=top;strokeWidth=2;strokeColor=#82b366;shadow=0;dashed=0;shape=mxgraph.ios7.icons.flag;fillColor=#d5e8d4;" parent="1" vertex="1">
          <mxGeometry x="1620" y="-155" width="30" height="30" as="geometry" />
        </mxCell>
        <mxCell id="D6I25iLhBcs16up5qAs6-24" value="&lt;b&gt;d_e.rq2.1_filter_github_repositories.py&lt;/b&gt;" style="edgeStyle=orthogonalEdgeStyle;rounded=0;orthogonalLoop=1;jettySize=auto;html=1;" edge="1" parent="1" source="KtceYd06ipeqsjsjsaXc-127" target="D6I25iLhBcs16up5qAs6-3">
          <mxGeometry relative="1" as="geometry" />
        </mxCell>
        <mxCell id="D6I25iLhBcs16up5qAs6-97" value="&lt;b&gt;d_a.rq0.table_2_unique_cve_by_severity.py&lt;/b&gt;" style="edgeStyle=orthogonalEdgeStyle;rounded=0;orthogonalLoop=1;jettySize=auto;html=1;" edge="1" parent="1" source="KtceYd06ipeqsjsjsaXc-127" target="D6I25iLhBcs16up5qAs6-96">
          <mxGeometry relative="1" as="geometry">
            <Array as="points">
              <mxPoint x="2573" y="-290" />
              <mxPoint x="2800" y="-290" />
            </Array>
          </mxGeometry>
        </mxCell>
        <mxCell id="D6I25iLhBcs16up5qAs6-99" value="&lt;b&gt;d_a.rq0.fig_1_bar_plot_severity_by_unique_cves.py&lt;/b&gt;" style="edgeStyle=orthogonalEdgeStyle;rounded=0;orthogonalLoop=1;jettySize=auto;html=1;" edge="1" parent="1" source="KtceYd06ipeqsjsjsaXc-127" target="D6I25iLhBcs16up5qAs6-98">
          <mxGeometry relative="1" as="geometry">
            <Array as="points">
              <mxPoint x="2573" y="-230" />
              <mxPoint x="2340" y="-230" />
            </Array>
          </mxGeometry>
        </mxCell>
        <mxCell id="KtceYd06ipeqsjsjsaXc-127" value="" style="shape=cylinder3;whiteSpace=wrap;html=1;boundedLbl=1;backgroundOutline=1;size=15;fillColor=#cdeb8b;strokeColor=#36393d;" parent="1" vertex="1">
          <mxGeometry x="2542.5" y="-111" width="60" height="80" as="geometry" />
        </mxCell>
        <mxCell id="KtceYd06ipeqsjsjsaXc-128" value="&lt;b&gt;rq0_4_unique_cves.py&lt;/b&gt;" style="text;html=1;align=center;verticalAlign=middle;whiteSpace=wrap;rounded=0;" parent="1" vertex="1">
          <mxGeometry x="2492.5" y="-31" width="160" height="30" as="geometry" />
        </mxCell>
        <mxCell id="KtceYd06ipeqsjsjsaXc-129" value="unique_cves" style="swimlane;fontStyle=0;childLayout=stackLayout;horizontal=1;startSize=30;horizontalStack=0;resizeParent=1;resizeParentMax=0;resizeLast=0;collapsible=1;marginBottom=0;whiteSpace=wrap;html=1;" parent="1" vertex="1">
          <mxGeometry x="2440" y="-1" width="265" height="600" as="geometry" />
        </mxCell>
        <mxCell id="KtceYd06ipeqsjsjsaXc-130" value="combined_name (str)" style="text;strokeColor=none;fillColor=none;align=left;verticalAlign=middle;spacingLeft=4;spacingRight=4;overflow=hidden;points=[[0,0.5],[1,0.5]];portConstraint=eastwest;rotatable=0;whiteSpace=wrap;html=1;" parent="KtceYd06ipeqsjsjsaXc-129" vertex="1">
          <mxGeometry y="30" width="265" height="30" as="geometry" />
        </mxCell>
        <mxCell id="KtceYd06ipeqsjsjsaXc-131" value="group_id (str)" style="text;strokeColor=none;fillColor=none;align=left;verticalAlign=middle;spacingLeft=4;spacingRight=4;overflow=hidden;points=[[0,0.5],[1,0.5]];portConstraint=eastwest;rotatable=0;whiteSpace=wrap;html=1;" parent="KtceYd06ipeqsjsjsaXc-129" vertex="1">
          <mxGeometry y="60" width="265" height="30" as="geometry" />
        </mxCell>
        <mxCell id="KtceYd06ipeqsjsjsaXc-132" value="artifact_id (str)" style="text;strokeColor=none;fillColor=none;align=left;verticalAlign=middle;spacingLeft=4;spacingRight=4;overflow=hidden;points=[[0,0.5],[1,0.5]];portConstraint=eastwest;rotatable=0;whiteSpace=wrap;html=1;" parent="KtceYd06ipeqsjsjsaXc-129" vertex="1">
          <mxGeometry y="90" width="265" height="30" as="geometry" />
        </mxCell>
        <mxCell id="KtceYd06ipeqsjsjsaXc-133" value="release_version (str)" style="text;strokeColor=none;fillColor=none;align=left;verticalAlign=middle;spacingLeft=4;spacingRight=4;overflow=hidden;points=[[0,0.5],[1,0.5]];portConstraint=eastwest;rotatable=0;whiteSpace=wrap;html=1;" parent="KtceYd06ipeqsjsjsaXc-129" vertex="1">
          <mxGeometry y="120" width="265" height="30" as="geometry" />
        </mxCell>
        <mxCell id="KtceYd06ipeqsjsjsaXc-134" value="release_timestamp (datetime)" style="text;strokeColor=none;fillColor=none;align=left;verticalAlign=middle;spacingLeft=4;spacingRight=4;overflow=hidden;points=[[0,0.5],[1,0.5]];portConstraint=eastwest;rotatable=0;whiteSpace=wrap;html=1;" parent="KtceYd06ipeqsjsjsaXc-129" vertex="1">
          <mxGeometry y="150" width="265" height="30" as="geometry" />
        </mxCell>
        <mxCell id="KtceYd06ipeqsjsjsaXc-135" value="cve_id (str)" style="text;strokeColor=none;fillColor=none;align=left;verticalAlign=middle;spacingLeft=4;spacingRight=4;overflow=hidden;points=[[0,0.5],[1,0.5]];portConstraint=eastwest;rotatable=0;whiteSpace=wrap;html=1;" parent="KtceYd06ipeqsjsjsaXc-129" vertex="1">
          <mxGeometry y="180" width="265" height="30" as="geometry" />
        </mxCell>
        <mxCell id="KtceYd06ipeqsjsjsaXc-136" value="severity (enum)" style="text;strokeColor=none;fillColor=none;align=left;verticalAlign=middle;spacingLeft=4;spacingRight=4;overflow=hidden;points=[[0,0.5],[1,0.5]];portConstraint=eastwest;rotatable=0;whiteSpace=wrap;html=1;" parent="KtceYd06ipeqsjsjsaXc-129" vertex="1">
          <mxGeometry y="210" width="265" height="30" as="geometry" />
        </mxCell>
        <mxCell id="KtceYd06ipeqsjsjsaXc-141" value="start_version (str)" style="text;strokeColor=none;fillColor=none;align=left;verticalAlign=middle;spacingLeft=4;spacingRight=4;overflow=hidden;points=[[0,0.5],[1,0.5]];portConstraint=eastwest;rotatable=0;whiteSpace=wrap;html=1;" parent="KtceYd06ipeqsjsjsaXc-129" vertex="1">
          <mxGeometry y="240" width="265" height="30" as="geometry" />
        </mxCell>
        <mxCell id="KtceYd06ipeqsjsjsaXc-142" value="end_version (str)" style="text;strokeColor=none;fillColor=none;align=left;verticalAlign=middle;spacingLeft=4;spacingRight=4;overflow=hidden;points=[[0,0.5],[1,0.5]];portConstraint=eastwest;rotatable=0;whiteSpace=wrap;html=1;" parent="KtceYd06ipeqsjsjsaXc-129" vertex="1">
          <mxGeometry y="270" width="265" height="30" as="geometry" />
        </mxCell>
        <mxCell id="D6I25iLhBcs16up5qAs6-37" value="patched_version (str)" style="text;strokeColor=none;fillColor=none;align=left;verticalAlign=middle;spacingLeft=4;spacingRight=4;overflow=hidden;points=[[0,0.5],[1,0.5]];portConstraint=eastwest;rotatable=0;whiteSpace=wrap;html=1;" vertex="1" parent="KtceYd06ipeqsjsjsaXc-129">
          <mxGeometry y="300" width="265" height="30" as="geometry" />
        </mxCell>
        <mxCell id="KtceYd06ipeqsjsjsaXc-156" value="latest_version (str)" style="text;strokeColor=none;fillColor=none;align=left;verticalAlign=middle;spacingLeft=4;spacingRight=4;overflow=hidden;points=[[0,0.5],[1,0.5]];portConstraint=eastwest;rotatable=0;whiteSpace=wrap;html=1;" parent="KtceYd06ipeqsjsjsaXc-129" vertex="1">
          <mxGeometry y="330" width="265" height="30" as="geometry" />
        </mxCell>
        <mxCell id="KtceYd06ipeqsjsjsaXc-143" value="start_version_timestamp (datetime)" style="text;strokeColor=none;fillColor=none;align=left;verticalAlign=middle;spacingLeft=4;spacingRight=4;overflow=hidden;points=[[0,0.5],[1,0.5]];portConstraint=eastwest;rotatable=0;whiteSpace=wrap;html=1;" parent="KtceYd06ipeqsjsjsaXc-129" vertex="1">
          <mxGeometry y="360" width="265" height="30" as="geometry" />
        </mxCell>
        <mxCell id="KtceYd06ipeqsjsjsaXc-144" value="end_version_timestamp (datetime)" style="text;strokeColor=none;fillColor=none;align=left;verticalAlign=middle;spacingLeft=4;spacingRight=4;overflow=hidden;points=[[0,0.5],[1,0.5]];portConstraint=eastwest;rotatable=0;whiteSpace=wrap;html=1;" parent="KtceYd06ipeqsjsjsaXc-129" vertex="1">
          <mxGeometry y="390" width="265" height="30" as="geometry" />
        </mxCell>
        <mxCell id="D6I25iLhBcs16up5qAs6-38" value="patched_version_timestamp (datetime)" style="text;strokeColor=none;fillColor=none;align=left;verticalAlign=middle;spacingLeft=4;spacingRight=4;overflow=hidden;points=[[0,0.5],[1,0.5]];portConstraint=eastwest;rotatable=0;whiteSpace=wrap;html=1;" vertex="1" parent="KtceYd06ipeqsjsjsaXc-129">
          <mxGeometry y="420" width="265" height="30" as="geometry" />
        </mxCell>
        <mxCell id="KtceYd06ipeqsjsjsaXc-145" value="cve_publish_date (datetime)" style="text;strokeColor=none;fillColor=none;align=left;verticalAlign=middle;spacingLeft=4;spacingRight=4;overflow=hidden;points=[[0,0.5],[1,0.5]];portConstraint=eastwest;rotatable=0;whiteSpace=wrap;html=1;" parent="KtceYd06ipeqsjsjsaXc-129" vertex="1">
          <mxGeometry y="450" width="265" height="30" as="geometry" />
        </mxCell>
        <mxCell id="KtceYd06ipeqsjsjsaXc-146" value="cve_patched (bool)" style="text;strokeColor=none;fillColor=none;align=left;verticalAlign=middle;spacingLeft=4;spacingRight=4;overflow=hidden;points=[[0,0.5],[1,0.5]];portConstraint=eastwest;rotatable=0;whiteSpace=wrap;html=1;" parent="KtceYd06ipeqsjsjsaXc-129" vertex="1">
          <mxGeometry y="480" width="265" height="30" as="geometry" />
        </mxCell>
        <mxCell id="KtceYd06ipeqsjsjsaXc-147" value="cve_duration (datetime)" style="text;strokeColor=none;fillColor=none;align=left;verticalAlign=middle;spacingLeft=4;spacingRight=4;overflow=hidden;points=[[0,0.5],[1,0.5]];portConstraint=eastwest;rotatable=0;whiteSpace=wrap;html=1;" parent="KtceYd06ipeqsjsjsaXc-129" vertex="1">
          <mxGeometry y="510" width="265" height="30" as="geometry" />
        </mxCell>
        <mxCell id="KtceYd06ipeqsjsjsaXc-148" value="api_id (str)" style="text;strokeColor=none;fillColor=none;align=left;verticalAlign=middle;spacingLeft=4;spacingRight=4;overflow=hidden;points=[[0,0.5],[1,0.5]];portConstraint=eastwest;rotatable=0;whiteSpace=wrap;html=1;" parent="KtceYd06ipeqsjsjsaXc-129" vertex="1">
          <mxGeometry y="540" width="265" height="30" as="geometry" />
        </mxCell>
        <mxCell id="KtceYd06ipeqsjsjsaXc-149" value="api_aliases (List[str])" style="text;strokeColor=none;fillColor=none;align=left;verticalAlign=middle;spacingLeft=4;spacingRight=4;overflow=hidden;points=[[0,0.5],[1,0.5]];portConstraint=eastwest;rotatable=0;whiteSpace=wrap;html=1;" parent="KtceYd06ipeqsjsjsaXc-129" vertex="1">
          <mxGeometry y="570" width="265" height="30" as="geometry" />
        </mxCell>
        <mxCell id="KtceYd06ipeqsjsjsaXc-137" value="&lt;font style=&quot;font-size: 18px;&quot;&gt;3,484 Rows&lt;/font&gt;" style="text;html=1;align=center;verticalAlign=middle;whiteSpace=wrap;rounded=0;fillColor=#ffe6cc;strokeColor=#d79b00;fontStyle=1" parent="1" vertex="1">
          <mxGeometry x="2470" y="684" width="205" height="30" as="geometry" />
        </mxCell>
        <mxCell id="KtceYd06ipeqsjsjsaXc-138" value="&lt;font size=&quot;3&quot;&gt;Unique CVE Data&lt;/font&gt;" style="text;html=1;align=center;verticalAlign=middle;whiteSpace=wrap;rounded=0;fillColor=#ffe6cc;strokeColor=#d79b00;fontStyle=1" parent="1" vertex="1">
          <mxGeometry x="2470" y="654" width="205" height="30" as="geometry" />
        </mxCell>
        <mxCell id="KtceYd06ipeqsjsjsaXc-139" value="&lt;b&gt;&lt;font style=&quot;font-size: 11px;&quot;&gt;Has Headers&lt;/font&gt;&lt;/b&gt;" style="rounded=0;whiteSpace=wrap;html=1;fillColor=#bac8d3;strokeColor=#23445d;" parent="1" vertex="1">
          <mxGeometry x="2470" y="629" width="205" height="25" as="geometry" />
        </mxCell>
        <mxCell id="KtceYd06ipeqsjsjsaXc-151" value="python -m src.data_extraction.rq0.1_extract_artifact_names_from_api" style="text;html=1;align=center;verticalAlign=middle;whiteSpace=wrap;rounded=0;fillColor=#ffff88;strokeColor=#36393d;" parent="1" vertex="1">
          <mxGeometry x="405" y="-717" width="440" height="30" as="geometry" />
        </mxCell>
        <mxCell id="KtceYd06ipeqsjsjsaXc-152" value="python -m src.data_extraction.rq0.2_enrich_artifact_data" style="text;html=1;align=center;verticalAlign=middle;whiteSpace=wrap;rounded=0;fillColor=#ffff88;strokeColor=#36393d;" parent="1" vertex="1">
          <mxGeometry x="405" y="-674.5" width="440" height="30" as="geometry" />
        </mxCell>
        <mxCell id="KtceYd06ipeqsjsjsaXc-153" value="python -m src.data_extraction.rq0.3_extract_releases_cves" style="text;html=1;align=center;verticalAlign=middle;whiteSpace=wrap;rounded=0;fillColor=#ffff88;strokeColor=#36393d;" parent="1" vertex="1">
          <mxGeometry x="405" y="-629.5" width="440" height="30" as="geometry" />
        </mxCell>
        <mxCell id="KtceYd06ipeqsjsjsaXc-154" value="python -m src.data_extraction.rq0.4_extract_unique_cves" style="text;html=1;align=center;verticalAlign=middle;whiteSpace=wrap;rounded=0;fillColor=#ffff88;strokeColor=#36393d;" parent="1" vertex="1">
          <mxGeometry x="405" y="-584.5" width="440" height="30" as="geometry" />
        </mxCell>
        <mxCell id="D6I25iLhBcs16up5qAs6-1" value="Has Flag for: Missing Publish Date or N/A Duration" style="html=1;verticalLabelPosition=bottom;align=left;labelBackgroundColor=#ffffff;verticalAlign=top;strokeWidth=2;strokeColor=#82b366;shadow=0;dashed=0;shape=mxgraph.ios7.icons.flag;fillColor=#d5e8d4;" vertex="1" parent="1">
          <mxGeometry x="2180" y="-150" width="30" height="30" as="geometry" />
        </mxCell>
        <mxCell id="D6I25iLhBcs16up5qAs6-2" value="" style="endArrow=none;dashed=1;html=1;dashPattern=1 3;strokeWidth=2;rounded=0;" edge="1" parent="1">
          <mxGeometry width="50" height="50" relative="1" as="geometry">
            <mxPoint x="2990" y="620" as="sourcePoint" />
            <mxPoint x="2990" y="-480" as="targetPoint" />
          </mxGeometry>
        </mxCell>
        <mxCell id="D6I25iLhBcs16up5qAs6-90" value="&lt;b&gt;d_e.rq2.2_enrich_github_metrics.py&lt;/b&gt;" style="edgeStyle=orthogonalEdgeStyle;rounded=0;orthogonalLoop=1;jettySize=auto;html=1;" edge="1" parent="1" source="D6I25iLhBcs16up5qAs6-3" target="D6I25iLhBcs16up5qAs6-65">
          <mxGeometry relative="1" as="geometry" />
        </mxCell>
        <mxCell id="D6I25iLhBcs16up5qAs6-3" value="" style="shape=cylinder3;whiteSpace=wrap;html=1;boundedLbl=1;backgroundOutline=1;size=15;fillColor=#6d8764;fontColor=#ffffff;strokeColor=#3A5431;" vertex="1" parent="1">
          <mxGeometry x="3235" y="-110" width="60" height="80" as="geometry" />
        </mxCell>
        <mxCell id="D6I25iLhBcs16up5qAs6-4" value="&lt;b&gt;rq2_1_github_repositories_by_cve&lt;/b&gt;" style="text;html=1;align=center;verticalAlign=middle;whiteSpace=wrap;rounded=0;" vertex="1" parent="1">
          <mxGeometry x="3185" y="-30" width="160" height="30" as="geometry" />
        </mxCell>
        <mxCell id="D6I25iLhBcs16up5qAs6-25" value="python -m src.data_extraction.rq2.1_filter_github_repositories" style="text;html=1;align=center;verticalAlign=middle;whiteSpace=wrap;rounded=0;fillColor=#ffe6cc;strokeColor=#d79b00;" vertex="1" parent="1">
          <mxGeometry x="405" y="-484.5" width="440" height="30" as="geometry" />
        </mxCell>
        <mxCell id="D6I25iLhBcs16up5qAs6-29" value="python -m src.data_extraction.rq2.2_enrich_github_metrics" style="text;html=1;align=center;verticalAlign=middle;whiteSpace=wrap;rounded=0;fillColor=#ffe6cc;strokeColor=#d79b00;" vertex="1" parent="1">
          <mxGeometry x="405" y="-444.5" width="440" height="30" as="geometry" />
        </mxCell>
        <mxCell id="D6I25iLhBcs16up5qAs6-30" value="python -m src.data_extraction.rq2.3_enrich_bigquery_metrics" style="text;html=1;align=center;verticalAlign=middle;whiteSpace=wrap;rounded=0;fillColor=#ffe6cc;strokeColor=#d79b00;" vertex="1" parent="1">
          <mxGeometry x="405" y="-404.5" width="440" height="30" as="geometry" />
        </mxCell>
        <mxCell id="D6I25iLhBcs16up5qAs6-31" value="&lt;font style=&quot;font-size: 15px;&quot;&gt;Nov 3 Dataset&lt;/font&gt;" style="text;html=1;align=center;verticalAlign=middle;whiteSpace=wrap;rounded=0;fillColor=#f8cecc;strokeColor=#b85450;fontStyle=1" vertex="1" parent="1">
          <mxGeometry x="1440" y="480" width="180" height="30" as="geometry" />
        </mxCell>
        <mxCell id="D6I25iLhBcs16up5qAs6-32" value="&lt;font style=&quot;font-size: 18px;&quot;&gt;1,012 Rows&lt;/font&gt;" style="text;html=1;align=center;verticalAlign=middle;whiteSpace=wrap;rounded=0;fillColor=#ffe6cc;strokeColor=#d79b00;fontStyle=1" vertex="1" parent="1">
          <mxGeometry x="3160" y="765" width="205" height="30" as="geometry" />
        </mxCell>
        <mxCell id="D6I25iLhBcs16up5qAs6-33" value="&lt;font size=&quot;3&quot;&gt;CVEs w GitHub&lt;/font&gt;" style="text;html=1;align=center;verticalAlign=middle;whiteSpace=wrap;rounded=0;fillColor=#ffe6cc;strokeColor=#d79b00;fontStyle=1" vertex="1" parent="1">
          <mxGeometry x="3160" y="735" width="205" height="30" as="geometry" />
        </mxCell>
        <mxCell id="D6I25iLhBcs16up5qAs6-34" value="&lt;b&gt;&lt;font style=&quot;font-size: 11px;&quot;&gt;Has Headers&lt;/font&gt;&lt;/b&gt;" style="rounded=0;whiteSpace=wrap;html=1;fillColor=#bac8d3;strokeColor=#23445d;" vertex="1" parent="1">
          <mxGeometry x="3160" y="710" width="205" height="25" as="geometry" />
        </mxCell>
        <mxCell id="D6I25iLhBcs16up5qAs6-35" value="&lt;font style=&quot;font-size: 18px;&quot;&gt;12 POM not found&lt;/font&gt;" style="text;html=1;align=center;verticalAlign=middle;whiteSpace=wrap;rounded=0;fillColor=#ffe6cc;strokeColor=#d79b00;fontStyle=1" vertex="1" parent="1">
          <mxGeometry x="3157.5" y="820" width="205" height="30" as="geometry" />
        </mxCell>
        <mxCell id="D6I25iLhBcs16up5qAs6-36" value="&lt;font style=&quot;font-size: 18px;&quot;&gt;2,472 no link (?)&lt;/font&gt;" style="text;html=1;align=center;verticalAlign=middle;whiteSpace=wrap;rounded=0;fillColor=#ffe6cc;strokeColor=#d79b00;fontStyle=1" vertex="1" parent="1">
          <mxGeometry x="3157.5" y="850" width="205" height="30" as="geometry" />
        </mxCell>
        <mxCell id="D6I25iLhBcs16up5qAs6-40" value="github_repos_by_cve" style="swimlane;fontStyle=0;childLayout=stackLayout;horizontal=1;startSize=30;horizontalStack=0;resizeParent=1;resizeParentMax=0;resizeLast=0;collapsible=1;marginBottom=0;whiteSpace=wrap;html=1;" vertex="1" parent="1">
          <mxGeometry x="3132.5" y="5" width="265" height="690" as="geometry" />
        </mxCell>
        <mxCell id="D6I25iLhBcs16up5qAs6-41" value="combined_name (str)" style="text;strokeColor=none;fillColor=none;align=left;verticalAlign=middle;spacingLeft=4;spacingRight=4;overflow=hidden;points=[[0,0.5],[1,0.5]];portConstraint=eastwest;rotatable=0;whiteSpace=wrap;html=1;" vertex="1" parent="D6I25iLhBcs16up5qAs6-40">
          <mxGeometry y="30" width="265" height="30" as="geometry" />
        </mxCell>
        <mxCell id="D6I25iLhBcs16up5qAs6-42" value="group_id (str)" style="text;strokeColor=none;fillColor=none;align=left;verticalAlign=middle;spacingLeft=4;spacingRight=4;overflow=hidden;points=[[0,0.5],[1,0.5]];portConstraint=eastwest;rotatable=0;whiteSpace=wrap;html=1;" vertex="1" parent="D6I25iLhBcs16up5qAs6-40">
          <mxGeometry y="60" width="265" height="30" as="geometry" />
        </mxCell>
        <mxCell id="D6I25iLhBcs16up5qAs6-43" value="artifact_id (str)" style="text;strokeColor=none;fillColor=none;align=left;verticalAlign=middle;spacingLeft=4;spacingRight=4;overflow=hidden;points=[[0,0.5],[1,0.5]];portConstraint=eastwest;rotatable=0;whiteSpace=wrap;html=1;" vertex="1" parent="D6I25iLhBcs16up5qAs6-40">
          <mxGeometry y="90" width="265" height="30" as="geometry" />
        </mxCell>
        <mxCell id="D6I25iLhBcs16up5qAs6-44" value="release_version (str)" style="text;strokeColor=none;fillColor=none;align=left;verticalAlign=middle;spacingLeft=4;spacingRight=4;overflow=hidden;points=[[0,0.5],[1,0.5]];portConstraint=eastwest;rotatable=0;whiteSpace=wrap;html=1;" vertex="1" parent="D6I25iLhBcs16up5qAs6-40">
          <mxGeometry y="120" width="265" height="30" as="geometry" />
        </mxCell>
        <mxCell id="D6I25iLhBcs16up5qAs6-45" value="release_timestamp (datetime)" style="text;strokeColor=none;fillColor=none;align=left;verticalAlign=middle;spacingLeft=4;spacingRight=4;overflow=hidden;points=[[0,0.5],[1,0.5]];portConstraint=eastwest;rotatable=0;whiteSpace=wrap;html=1;" vertex="1" parent="D6I25iLhBcs16up5qAs6-40">
          <mxGeometry y="150" width="265" height="30" as="geometry" />
        </mxCell>
        <mxCell id="D6I25iLhBcs16up5qAs6-46" value="cve_id (str)" style="text;strokeColor=none;fillColor=none;align=left;verticalAlign=middle;spacingLeft=4;spacingRight=4;overflow=hidden;points=[[0,0.5],[1,0.5]];portConstraint=eastwest;rotatable=0;whiteSpace=wrap;html=1;" vertex="1" parent="D6I25iLhBcs16up5qAs6-40">
          <mxGeometry y="180" width="265" height="30" as="geometry" />
        </mxCell>
        <mxCell id="D6I25iLhBcs16up5qAs6-47" value="severity (enum)" style="text;strokeColor=none;fillColor=none;align=left;verticalAlign=middle;spacingLeft=4;spacingRight=4;overflow=hidden;points=[[0,0.5],[1,0.5]];portConstraint=eastwest;rotatable=0;whiteSpace=wrap;html=1;" vertex="1" parent="D6I25iLhBcs16up5qAs6-40">
          <mxGeometry y="210" width="265" height="30" as="geometry" />
        </mxCell>
        <mxCell id="D6I25iLhBcs16up5qAs6-48" value="start_version (str)" style="text;strokeColor=none;fillColor=none;align=left;verticalAlign=middle;spacingLeft=4;spacingRight=4;overflow=hidden;points=[[0,0.5],[1,0.5]];portConstraint=eastwest;rotatable=0;whiteSpace=wrap;html=1;" vertex="1" parent="D6I25iLhBcs16up5qAs6-40">
          <mxGeometry y="240" width="265" height="30" as="geometry" />
        </mxCell>
        <mxCell id="D6I25iLhBcs16up5qAs6-49" value="end_version (str)" style="text;strokeColor=none;fillColor=none;align=left;verticalAlign=middle;spacingLeft=4;spacingRight=4;overflow=hidden;points=[[0,0.5],[1,0.5]];portConstraint=eastwest;rotatable=0;whiteSpace=wrap;html=1;" vertex="1" parent="D6I25iLhBcs16up5qAs6-40">
          <mxGeometry y="270" width="265" height="30" as="geometry" />
        </mxCell>
        <mxCell id="D6I25iLhBcs16up5qAs6-50" value="patched_version (str)" style="text;strokeColor=none;fillColor=none;align=left;verticalAlign=middle;spacingLeft=4;spacingRight=4;overflow=hidden;points=[[0,0.5],[1,0.5]];portConstraint=eastwest;rotatable=0;whiteSpace=wrap;html=1;" vertex="1" parent="D6I25iLhBcs16up5qAs6-40">
          <mxGeometry y="300" width="265" height="30" as="geometry" />
        </mxCell>
        <mxCell id="D6I25iLhBcs16up5qAs6-51" value="latest_version (str)" style="text;strokeColor=none;fillColor=none;align=left;verticalAlign=middle;spacingLeft=4;spacingRight=4;overflow=hidden;points=[[0,0.5],[1,0.5]];portConstraint=eastwest;rotatable=0;whiteSpace=wrap;html=1;" vertex="1" parent="D6I25iLhBcs16up5qAs6-40">
          <mxGeometry y="330" width="265" height="30" as="geometry" />
        </mxCell>
        <mxCell id="D6I25iLhBcs16up5qAs6-52" value="start_version_timestamp (datetime)" style="text;strokeColor=none;fillColor=none;align=left;verticalAlign=middle;spacingLeft=4;spacingRight=4;overflow=hidden;points=[[0,0.5],[1,0.5]];portConstraint=eastwest;rotatable=0;whiteSpace=wrap;html=1;" vertex="1" parent="D6I25iLhBcs16up5qAs6-40">
          <mxGeometry y="360" width="265" height="30" as="geometry" />
        </mxCell>
        <mxCell id="D6I25iLhBcs16up5qAs6-53" value="end_version_timestamp (datetime)" style="text;strokeColor=none;fillColor=none;align=left;verticalAlign=middle;spacingLeft=4;spacingRight=4;overflow=hidden;points=[[0,0.5],[1,0.5]];portConstraint=eastwest;rotatable=0;whiteSpace=wrap;html=1;" vertex="1" parent="D6I25iLhBcs16up5qAs6-40">
          <mxGeometry y="390" width="265" height="30" as="geometry" />
        </mxCell>
        <mxCell id="D6I25iLhBcs16up5qAs6-54" value="patched_version_timestamp (datetime)" style="text;strokeColor=none;fillColor=none;align=left;verticalAlign=middle;spacingLeft=4;spacingRight=4;overflow=hidden;points=[[0,0.5],[1,0.5]];portConstraint=eastwest;rotatable=0;whiteSpace=wrap;html=1;" vertex="1" parent="D6I25iLhBcs16up5qAs6-40">
          <mxGeometry y="420" width="265" height="30" as="geometry" />
        </mxCell>
        <mxCell id="D6I25iLhBcs16up5qAs6-55" value="cve_publish_date (datetime)" style="text;strokeColor=none;fillColor=none;align=left;verticalAlign=middle;spacingLeft=4;spacingRight=4;overflow=hidden;points=[[0,0.5],[1,0.5]];portConstraint=eastwest;rotatable=0;whiteSpace=wrap;html=1;" vertex="1" parent="D6I25iLhBcs16up5qAs6-40">
          <mxGeometry y="450" width="265" height="30" as="geometry" />
        </mxCell>
        <mxCell id="D6I25iLhBcs16up5qAs6-56" value="cve_patched (bool)" style="text;strokeColor=none;fillColor=none;align=left;verticalAlign=middle;spacingLeft=4;spacingRight=4;overflow=hidden;points=[[0,0.5],[1,0.5]];portConstraint=eastwest;rotatable=0;whiteSpace=wrap;html=1;" vertex="1" parent="D6I25iLhBcs16up5qAs6-40">
          <mxGeometry y="480" width="265" height="30" as="geometry" />
        </mxCell>
        <mxCell id="D6I25iLhBcs16up5qAs6-57" value="cve_duration (datetime)" style="text;strokeColor=none;fillColor=none;align=left;verticalAlign=middle;spacingLeft=4;spacingRight=4;overflow=hidden;points=[[0,0.5],[1,0.5]];portConstraint=eastwest;rotatable=0;whiteSpace=wrap;html=1;" vertex="1" parent="D6I25iLhBcs16up5qAs6-40">
          <mxGeometry y="510" width="265" height="30" as="geometry" />
        </mxCell>
        <mxCell id="D6I25iLhBcs16up5qAs6-58" value="api_id (str)" style="text;strokeColor=none;fillColor=none;align=left;verticalAlign=middle;spacingLeft=4;spacingRight=4;overflow=hidden;points=[[0,0.5],[1,0.5]];portConstraint=eastwest;rotatable=0;whiteSpace=wrap;html=1;" vertex="1" parent="D6I25iLhBcs16up5qAs6-40">
          <mxGeometry y="540" width="265" height="30" as="geometry" />
        </mxCell>
        <mxCell id="D6I25iLhBcs16up5qAs6-59" value="github_url (str)" style="text;strokeColor=none;fillColor=none;align=left;verticalAlign=middle;spacingLeft=4;spacingRight=4;overflow=hidden;points=[[0,0.5],[1,0.5]];portConstraint=eastwest;rotatable=0;whiteSpace=wrap;html=1;" vertex="1" parent="D6I25iLhBcs16up5qAs6-40">
          <mxGeometry y="570" width="265" height="30" as="geometry" />
        </mxCell>
        <mxCell id="D6I25iLhBcs16up5qAs6-60" value="github_api_url (str)" style="text;strokeColor=none;fillColor=none;align=left;verticalAlign=middle;spacingLeft=4;spacingRight=4;overflow=hidden;points=[[0,0.5],[1,0.5]];portConstraint=eastwest;rotatable=0;whiteSpace=wrap;html=1;" vertex="1" parent="D6I25iLhBcs16up5qAs6-40">
          <mxGeometry y="600" width="265" height="30" as="geometry" />
        </mxCell>
        <mxCell id="D6I25iLhBcs16up5qAs6-61" value="github_owner (str)" style="text;strokeColor=none;fillColor=none;align=left;verticalAlign=middle;spacingLeft=4;spacingRight=4;overflow=hidden;points=[[0,0.5],[1,0.5]];portConstraint=eastwest;rotatable=0;whiteSpace=wrap;html=1;" vertex="1" parent="D6I25iLhBcs16up5qAs6-40">
          <mxGeometry y="630" width="265" height="30" as="geometry" />
        </mxCell>
        <mxCell id="D6I25iLhBcs16up5qAs6-62" value="github_repo (str)" style="text;strokeColor=none;fillColor=none;align=left;verticalAlign=middle;spacingLeft=4;spacingRight=4;overflow=hidden;points=[[0,0.5],[1,0.5]];portConstraint=eastwest;rotatable=0;whiteSpace=wrap;html=1;" vertex="1" parent="D6I25iLhBcs16up5qAs6-40">
          <mxGeometry y="660" width="265" height="30" as="geometry" />
        </mxCell>
        <mxCell id="D6I25iLhBcs16up5qAs6-65" value="" style="shape=cylinder3;whiteSpace=wrap;html=1;boundedLbl=1;backgroundOutline=1;size=15;fillColor=#6d8764;fontColor=#ffffff;strokeColor=#3A5431;" vertex="1" parent="1">
          <mxGeometry x="3792.5" y="-110.5" width="60" height="80" as="geometry" />
        </mxCell>
        <mxCell id="D6I25iLhBcs16up5qAs6-66" value="&lt;b&gt;rq2_2_github_cves_with_gh_metrics&lt;/b&gt;" style="text;html=1;align=center;verticalAlign=middle;whiteSpace=wrap;rounded=0;" vertex="1" parent="1">
          <mxGeometry x="3742.5" y="-30.5" width="160" height="30" as="geometry" />
        </mxCell>
        <mxCell id="D6I25iLhBcs16up5qAs6-67" value="github_repos_with_gh_metrics" style="swimlane;fontStyle=0;childLayout=stackLayout;horizontal=1;startSize=30;horizontalStack=0;resizeParent=1;resizeParentMax=0;resizeLast=0;collapsible=1;marginBottom=0;whiteSpace=wrap;html=1;" vertex="1" parent="1">
          <mxGeometry x="3690" y="4.5" width="265" height="690" as="geometry" />
        </mxCell>
        <mxCell id="D6I25iLhBcs16up5qAs6-68" value="combined_name (str)" style="text;strokeColor=none;fillColor=none;align=left;verticalAlign=middle;spacingLeft=4;spacingRight=4;overflow=hidden;points=[[0,0.5],[1,0.5]];portConstraint=eastwest;rotatable=0;whiteSpace=wrap;html=1;" vertex="1" parent="D6I25iLhBcs16up5qAs6-67">
          <mxGeometry y="30" width="265" height="30" as="geometry" />
        </mxCell>
        <mxCell id="D6I25iLhBcs16up5qAs6-69" value="group_id (str)" style="text;strokeColor=none;fillColor=none;align=left;verticalAlign=middle;spacingLeft=4;spacingRight=4;overflow=hidden;points=[[0,0.5],[1,0.5]];portConstraint=eastwest;rotatable=0;whiteSpace=wrap;html=1;" vertex="1" parent="D6I25iLhBcs16up5qAs6-67">
          <mxGeometry y="60" width="265" height="30" as="geometry" />
        </mxCell>
        <mxCell id="D6I25iLhBcs16up5qAs6-70" value="artifact_id (str)" style="text;strokeColor=none;fillColor=none;align=left;verticalAlign=middle;spacingLeft=4;spacingRight=4;overflow=hidden;points=[[0,0.5],[1,0.5]];portConstraint=eastwest;rotatable=0;whiteSpace=wrap;html=1;" vertex="1" parent="D6I25iLhBcs16up5qAs6-67">
          <mxGeometry y="90" width="265" height="30" as="geometry" />
        </mxCell>
        <mxCell id="D6I25iLhBcs16up5qAs6-71" value="release_version (str)" style="text;strokeColor=none;fillColor=none;align=left;verticalAlign=middle;spacingLeft=4;spacingRight=4;overflow=hidden;points=[[0,0.5],[1,0.5]];portConstraint=eastwest;rotatable=0;whiteSpace=wrap;html=1;" vertex="1" parent="D6I25iLhBcs16up5qAs6-67">
          <mxGeometry y="120" width="265" height="30" as="geometry" />
        </mxCell>
        <mxCell id="D6I25iLhBcs16up5qAs6-72" value="release_timestamp (datetime)" style="text;strokeColor=none;fillColor=none;align=left;verticalAlign=middle;spacingLeft=4;spacingRight=4;overflow=hidden;points=[[0,0.5],[1,0.5]];portConstraint=eastwest;rotatable=0;whiteSpace=wrap;html=1;" vertex="1" parent="D6I25iLhBcs16up5qAs6-67">
          <mxGeometry y="150" width="265" height="30" as="geometry" />
        </mxCell>
        <mxCell id="D6I25iLhBcs16up5qAs6-73" value="cve_id (str)" style="text;strokeColor=none;fillColor=none;align=left;verticalAlign=middle;spacingLeft=4;spacingRight=4;overflow=hidden;points=[[0,0.5],[1,0.5]];portConstraint=eastwest;rotatable=0;whiteSpace=wrap;html=1;" vertex="1" parent="D6I25iLhBcs16up5qAs6-67">
          <mxGeometry y="180" width="265" height="30" as="geometry" />
        </mxCell>
        <mxCell id="D6I25iLhBcs16up5qAs6-74" value="severity (enum)" style="text;strokeColor=none;fillColor=none;align=left;verticalAlign=middle;spacingLeft=4;spacingRight=4;overflow=hidden;points=[[0,0.5],[1,0.5]];portConstraint=eastwest;rotatable=0;whiteSpace=wrap;html=1;" vertex="1" parent="D6I25iLhBcs16up5qAs6-67">
          <mxGeometry y="210" width="265" height="30" as="geometry" />
        </mxCell>
        <mxCell id="D6I25iLhBcs16up5qAs6-75" value="start_version (str)" style="text;strokeColor=none;fillColor=none;align=left;verticalAlign=middle;spacingLeft=4;spacingRight=4;overflow=hidden;points=[[0,0.5],[1,0.5]];portConstraint=eastwest;rotatable=0;whiteSpace=wrap;html=1;" vertex="1" parent="D6I25iLhBcs16up5qAs6-67">
          <mxGeometry y="240" width="265" height="30" as="geometry" />
        </mxCell>
        <mxCell id="D6I25iLhBcs16up5qAs6-76" value="end_version (str)" style="text;strokeColor=none;fillColor=none;align=left;verticalAlign=middle;spacingLeft=4;spacingRight=4;overflow=hidden;points=[[0,0.5],[1,0.5]];portConstraint=eastwest;rotatable=0;whiteSpace=wrap;html=1;" vertex="1" parent="D6I25iLhBcs16up5qAs6-67">
          <mxGeometry y="270" width="265" height="30" as="geometry" />
        </mxCell>
        <mxCell id="D6I25iLhBcs16up5qAs6-77" value="patched_version (str)" style="text;strokeColor=none;fillColor=none;align=left;verticalAlign=middle;spacingLeft=4;spacingRight=4;overflow=hidden;points=[[0,0.5],[1,0.5]];portConstraint=eastwest;rotatable=0;whiteSpace=wrap;html=1;" vertex="1" parent="D6I25iLhBcs16up5qAs6-67">
          <mxGeometry y="300" width="265" height="30" as="geometry" />
        </mxCell>
        <mxCell id="D6I25iLhBcs16up5qAs6-78" value="latest_version (str)" style="text;strokeColor=none;fillColor=none;align=left;verticalAlign=middle;spacingLeft=4;spacingRight=4;overflow=hidden;points=[[0,0.5],[1,0.5]];portConstraint=eastwest;rotatable=0;whiteSpace=wrap;html=1;" vertex="1" parent="D6I25iLhBcs16up5qAs6-67">
          <mxGeometry y="330" width="265" height="30" as="geometry" />
        </mxCell>
        <mxCell id="D6I25iLhBcs16up5qAs6-79" value="start_version_timestamp (datetime)" style="text;strokeColor=none;fillColor=none;align=left;verticalAlign=middle;spacingLeft=4;spacingRight=4;overflow=hidden;points=[[0,0.5],[1,0.5]];portConstraint=eastwest;rotatable=0;whiteSpace=wrap;html=1;" vertex="1" parent="D6I25iLhBcs16up5qAs6-67">
          <mxGeometry y="360" width="265" height="30" as="geometry" />
        </mxCell>
        <mxCell id="D6I25iLhBcs16up5qAs6-80" value="end_version_timestamp (datetime)" style="text;strokeColor=none;fillColor=none;align=left;verticalAlign=middle;spacingLeft=4;spacingRight=4;overflow=hidden;points=[[0,0.5],[1,0.5]];portConstraint=eastwest;rotatable=0;whiteSpace=wrap;html=1;" vertex="1" parent="D6I25iLhBcs16up5qAs6-67">
          <mxGeometry y="390" width="265" height="30" as="geometry" />
        </mxCell>
        <mxCell id="D6I25iLhBcs16up5qAs6-81" value="patched_version_timestamp (datetime)" style="text;strokeColor=none;fillColor=none;align=left;verticalAlign=middle;spacingLeft=4;spacingRight=4;overflow=hidden;points=[[0,0.5],[1,0.5]];portConstraint=eastwest;rotatable=0;whiteSpace=wrap;html=1;" vertex="1" parent="D6I25iLhBcs16up5qAs6-67">
          <mxGeometry y="420" width="265" height="30" as="geometry" />
        </mxCell>
        <mxCell id="D6I25iLhBcs16up5qAs6-82" value="cve_publish_date (datetime)" style="text;strokeColor=none;fillColor=none;align=left;verticalAlign=middle;spacingLeft=4;spacingRight=4;overflow=hidden;points=[[0,0.5],[1,0.5]];portConstraint=eastwest;rotatable=0;whiteSpace=wrap;html=1;" vertex="1" parent="D6I25iLhBcs16up5qAs6-67">
          <mxGeometry y="450" width="265" height="30" as="geometry" />
        </mxCell>
        <mxCell id="D6I25iLhBcs16up5qAs6-83" value="cve_patched (bool)" style="text;strokeColor=none;fillColor=none;align=left;verticalAlign=middle;spacingLeft=4;spacingRight=4;overflow=hidden;points=[[0,0.5],[1,0.5]];portConstraint=eastwest;rotatable=0;whiteSpace=wrap;html=1;" vertex="1" parent="D6I25iLhBcs16up5qAs6-67">
          <mxGeometry y="480" width="265" height="30" as="geometry" />
        </mxCell>
        <mxCell id="D6I25iLhBcs16up5qAs6-84" value="cve_duration (datetime)" style="text;strokeColor=none;fillColor=none;align=left;verticalAlign=middle;spacingLeft=4;spacingRight=4;overflow=hidden;points=[[0,0.5],[1,0.5]];portConstraint=eastwest;rotatable=0;whiteSpace=wrap;html=1;" vertex="1" parent="D6I25iLhBcs16up5qAs6-67">
          <mxGeometry y="510" width="265" height="30" as="geometry" />
        </mxCell>
        <mxCell id="D6I25iLhBcs16up5qAs6-85" value="api_id (str)" style="text;strokeColor=none;fillColor=none;align=left;verticalAlign=middle;spacingLeft=4;spacingRight=4;overflow=hidden;points=[[0,0.5],[1,0.5]];portConstraint=eastwest;rotatable=0;whiteSpace=wrap;html=1;" vertex="1" parent="D6I25iLhBcs16up5qAs6-67">
          <mxGeometry y="540" width="265" height="30" as="geometry" />
        </mxCell>
        <mxCell id="D6I25iLhBcs16up5qAs6-86" value="github_url (str)" style="text;strokeColor=none;fillColor=none;align=left;verticalAlign=middle;spacingLeft=4;spacingRight=4;overflow=hidden;points=[[0,0.5],[1,0.5]];portConstraint=eastwest;rotatable=0;whiteSpace=wrap;html=1;" vertex="1" parent="D6I25iLhBcs16up5qAs6-67">
          <mxGeometry y="570" width="265" height="30" as="geometry" />
        </mxCell>
        <mxCell id="D6I25iLhBcs16up5qAs6-87" value="github_api_url (str)" style="text;strokeColor=none;fillColor=none;align=left;verticalAlign=middle;spacingLeft=4;spacingRight=4;overflow=hidden;points=[[0,0.5],[1,0.5]];portConstraint=eastwest;rotatable=0;whiteSpace=wrap;html=1;" vertex="1" parent="D6I25iLhBcs16up5qAs6-67">
          <mxGeometry y="600" width="265" height="30" as="geometry" />
        </mxCell>
        <mxCell id="D6I25iLhBcs16up5qAs6-88" value="github_owner (str)" style="text;strokeColor=none;fillColor=none;align=left;verticalAlign=middle;spacingLeft=4;spacingRight=4;overflow=hidden;points=[[0,0.5],[1,0.5]];portConstraint=eastwest;rotatable=0;whiteSpace=wrap;html=1;" vertex="1" parent="D6I25iLhBcs16up5qAs6-67">
          <mxGeometry y="630" width="265" height="30" as="geometry" />
        </mxCell>
        <mxCell id="D6I25iLhBcs16up5qAs6-89" value="github_repo (str)" style="text;strokeColor=none;fillColor=none;align=left;verticalAlign=middle;spacingLeft=4;spacingRight=4;overflow=hidden;points=[[0,0.5],[1,0.5]];portConstraint=eastwest;rotatable=0;whiteSpace=wrap;html=1;" vertex="1" parent="D6I25iLhBcs16up5qAs6-67">
          <mxGeometry y="660" width="265" height="30" as="geometry" />
        </mxCell>
        <mxCell id="D6I25iLhBcs16up5qAs6-91" value="&lt;font style=&quot;font-size: 48px;&quot;&gt;&lt;u&gt;Legend&lt;/u&gt;&lt;/font&gt;" style="text;html=1;align=center;verticalAlign=middle;whiteSpace=wrap;rounded=0;" vertex="1" parent="1">
          <mxGeometry x="130" y="-800" width="60" height="30" as="geometry" />
        </mxCell>
        <mxCell id="D6I25iLhBcs16up5qAs6-92" value="&lt;font style=&quot;font-size: 48px;&quot;&gt;&lt;u&gt;Commands&lt;/u&gt;&lt;/font&gt;" style="text;html=1;align=center;verticalAlign=middle;whiteSpace=wrap;rounded=0;" vertex="1" parent="1">
          <mxGeometry x="600" y="-800" width="60" height="30" as="geometry" />
        </mxCell>
        <mxCell id="D6I25iLhBcs16up5qAs6-94" value="python -m src.data_analysis.rq0.fig_1_bar_plot_severity_by_unique_cves" style="text;html=1;align=center;verticalAlign=middle;whiteSpace=wrap;rounded=0;fillColor=#cdeb8b;strokeColor=#36393d;" vertex="1" parent="1">
          <mxGeometry x="870" y="-717" width="440" height="30" as="geometry" />
        </mxCell>
        <mxCell id="D6I25iLhBcs16up5qAs6-95" value="python -m src.data_analysis.rq0.table_2_unique_cve_by_severity" style="text;html=1;align=center;verticalAlign=middle;whiteSpace=wrap;rounded=0;fillColor=#cdeb8b;strokeColor=#36393d;" vertex="1" parent="1">
          <mxGeometry x="870" y="-670" width="440" height="30" as="geometry" />
        </mxCell>
        <mxCell id="D6I25iLhBcs16up5qAs6-96" value="table_2_unique_cve_by_severity" style="shape=note;whiteSpace=wrap;html=1;backgroundOutline=1;darkOpacity=0.05;fillColor=#d5e8d4;strokeColor=#82b366;" vertex="1" parent="1">
          <mxGeometry x="2690" y="-464.25" width="250" height="69.5" as="geometry" />
        </mxCell>
        <mxCell id="D6I25iLhBcs16up5qAs6-98" value="fig_1_bar_plot_severity_by_unique_cves" style="shape=note;whiteSpace=wrap;html=1;backgroundOutline=1;darkOpacity=0.05;fillColor=#d5e8d4;strokeColor=#82b366;" vertex="1" parent="1">
          <mxGeometry x="2200" y="-434.75" width="280" height="69.5" as="geometry" />
        </mxCell>
      </root>
    </mxGraphModel>
  </diagram>
</mxfile>
